<?xml version="1.0" encoding="utf-8"?>

<!DOCTYPE svg PUBLIC "-//W3C//DTD SVG 1.1//EN" "http://www.w3.org/Graphics/SVG/1.1/DTD/svg11.dtd">
<svg version="1.1" id="Layer_1" xmlns="http://www.w3.org/2000/svg" xmlns:xlink="http://www.w3.org/1999/xlink" x="0px" y="0px"
	 viewBox="0 0 1399.893 1714.864" style="enable-background:new 0 0 1399.893 1714.864;" xml:space="preserve">
<style type="text/css">
	.st0{fill:#D20471;stroke:#D20471;stroke-width:2.1518;}
	.st1{fill:#FE348B;stroke:#FE348B;stroke-width:2.1518;}
	.st2{fill:#E3147C;stroke:#E3147C;stroke-width:2.1518;}
	.st3{fill:#E2127B;stroke:#E2127B;stroke-width:2.1518;}
	.st4{fill:#FE358B;stroke:#FE358B;stroke-width:2.1518;}
	.st5{fill:#F96FB1;stroke:#F96FB1;stroke-width:2.1518;}
	.st6{fill:#FDB0D2;stroke:#FDB0D2;stroke-width:2.1518;}
	.st7{fill:#F8FCFC;stroke:#F8FCFC;stroke-width:2.1518;}
	.st8{fill:#E4157A;stroke:#E4157A;stroke-width:2.1518;}
	.st9{fill:#DE0A7A;stroke:#DE0A7A;stroke-width:2.1518;}
	.st10{fill:#F971B0;stroke:#F971B0;stroke-width:2.1518;}
	.st11{fill:#FC388D;stroke:#FC388D;stroke-width:2.1518;}
	.st12{fill:#D40573;stroke:#D40573;stroke-width:2.1518;}
	.st13{fill:#E876AB;stroke:#E876AB;stroke-width:2.1518;}
	.st14{fill:#FCC0DF;stroke:#FCC0DF;stroke-width:2.1518;}
	.st15{fill:#784F62;stroke:#784F62;stroke-width:2.1518;}
	.st16{fill:#0B0608;stroke:#0B0608;stroke-width:2.1518;}
	.st17{fill:#FDD9F7;stroke:#FDD9F7;stroke-width:2.1518;}
	.st18{fill:#FA5FAB;stroke:#FA5FAB;stroke-width:2.1518;}
	.st19{fill:#FCFDFC;stroke:#FCFDFC;stroke-width:2.1518;}
	.st20{fill:#FBC2E0;stroke:#FBC2E0;stroke-width:2.1518;}
	.st21{fill:#5CAFCF;stroke:#5CAFCF;stroke-width:2.1518;}
	.st22{fill:#04639E;stroke:#04639E;stroke-width:2.1518;}
	.st23{fill:#1A99D0;stroke:#1A99D0;stroke-width:2.1518;}
	.st24{fill:#0B77B1;stroke:#0B77B1;stroke-width:2.1518;}
	.st25{fill:#43C4F2;stroke:#43C4F2;stroke-width:2.1518;}
	.st26{fill:#617984;stroke:#617984;stroke-width:2.1518;}
	.st27{fill:#030203;stroke:#030203;stroke-width:2.1518;}
	.st28{fill:#FDBCDB;stroke:#FDBCDB;stroke-width:2.1518;}
	.st29{fill:#4CB0DA;stroke:#4CB0DA;stroke-width:2.1518;}
	.st30{fill:#D20571;stroke:#D20571;stroke-width:2.1518;}
	.st31{fill:#49253A;stroke:#49253A;stroke-width:2.1518;}
	.st32{fill:#66CEFA;stroke:#66CEFA;stroke-width:2.1518;}
	.st33{fill:#E91C7E;stroke:#E91C7E;stroke-width:2.1518;}
	.st34{fill:#4F737D;stroke:#4F737D;stroke-width:2.1518;}
	.st35{fill:#8D6C7E;stroke:#8D6C7E;stroke-width:2.1518;}
	.st36{fill:#FDBEDE;stroke:#FDBEDE;stroke-width:2.1518;}
	.st37{fill:#FDECFC;stroke:#FDECFC;stroke-width:2.1518;}
	.st38{fill:#A4758D;stroke:#A4758D;stroke-width:2.1518;}
	.st39{fill:#80E5FD;stroke:#80E5FD;stroke-width:2.1518;}
	.st40{fill:#FCEAF9;stroke:#FCEAF9;stroke-width:2.1518;}
	.st41{fill:#1D0C16;stroke:#1D0C16;stroke-width:2.1518;}
	.st42{opacity:0.97;fill:#62555E;stroke:#62555E;stroke-width:2.1518;enable-background:new    ;}
	.st43{fill:#FAFDFB;stroke:#FAFDFB;stroke-width:2.1518;}
	.st44{fill:#FB6AD2;stroke:#FB6AD2;stroke-width:2.1518;}
	.st45{fill:#FCCAEA;stroke:#FCCAEA;stroke-width:2.1518;}
	.st46{fill:#0E7EAF;stroke:#0E7EAF;stroke-width:2.1518;}
	.st47{opacity:0.96;fill:#0C0406;stroke:#0C0406;stroke-width:2.1518;enable-background:new    ;}
	.st48{fill:#FCFDFB;stroke:#FCFDFB;stroke-width:2.1518;}
	.st49{fill:#F471C3;stroke:#F471C3;stroke-width:2.1518;}
	.st50{fill:#3FB5E2;stroke:#3FB5E2;stroke-width:2.1518;}
	.st51{fill:#CCD9EC;stroke:#CCD9EC;stroke-width:2.1518;}
	.st52{fill:#547079;stroke:#547079;stroke-width:2.1518;}
	.st53{opacity:0.96;fill:#0E010E;stroke:#0E010E;stroke-width:2.1518;enable-background:new    ;}
	.st54{fill:#F65CAA;stroke:#F65CAA;stroke-width:2.1518;}
	.st55{fill:#DD0A7C;stroke:#DD0A7C;stroke-width:2.1518;}
	.st56{fill:#64EAFD;stroke:#64EAFD;stroke-width:2.1518;}
	.st57{fill:#FD3A8D;stroke:#FD3A8D;stroke-width:2.1518;}
	.st58{fill:#FCFBFC;stroke:#FCFBFC;stroke-width:2.1518;}
	.st59{fill:#9FFAFD;stroke:#9FFAFD;stroke-width:2.1518;}
	.st60{fill:#FB81C9;stroke:#FB81C9;stroke-width:2.1518;}
	.st61{fill:#F780B8;stroke:#F780B8;stroke-width:2.1518;}
	.st62{fill:#EB1B7F;stroke:#EB1B7F;stroke-width:2.1518;}
	.st63{fill:#FB6DBE;stroke:#FB6DBE;stroke-width:2.1518;}
	.st64{fill:#D30471;stroke:#D30471;stroke-width:2.1518;}
	.st65{fill:#FD7F1D;stroke:#FD7F1D;stroke-width:2.1518;}
	.st66{fill:#F75EA7;stroke:#F75EA7;stroke-width:2.1518;}
	.st67{fill:#D30474;stroke:#D30474;stroke-width:2.1518;}
	.st68{fill:#E5177D;stroke:#E5177D;stroke-width:2.1518;}
	.st69{fill:#FF348B;stroke:#FF348B;stroke-width:2.1518;}
	.st70{fill:#FE7DC1;stroke:#FE7DC1;stroke-width:2.1518;}
	.st71{fill:#F971B4;stroke:#F971B4;stroke-width:2.1518;}
	.st72{fill:#DFEBCB;stroke:#DFEBCB;stroke-width:2.1518;}
	.st73{fill:#D40575;stroke:#D40575;stroke-width:2.1518;}
	.st74{fill:#F965AC;stroke:#F965AC;stroke-width:2.1518;}
	.st75{fill:#F85BA8;stroke:#F85BA8;stroke-width:2.1518;}
	.st76{opacity:0.96;fill:#E3A4A7;stroke:#E3A4A7;stroke-width:2.1518;enable-background:new    ;}
	.st77{fill:#F04B9D;stroke:#F04B9D;stroke-width:2.1518;}
	.st78{fill:#F991C3;stroke:#F991C3;stroke-width:2.1518;}
	.st79{fill:#F3489A;stroke:#F3489A;stroke-width:2.1518;}
	.st80{fill:#F85AA8;stroke:#F85AA8;stroke-width:2.1518;}
	.st81{fill:#F44BA2;stroke:#F44BA2;stroke-width:2.1518;}
	.st82{fill:#F890C3;stroke:#F890C3;stroke-width:2.1518;}
	.st83{fill:#F682B6;stroke:#F682B6;stroke-width:2.1518;}
	.st84{fill:#F970B4;stroke:#F970B4;stroke-width:2.1518;}
	.st85{fill:#FD368B;stroke:#FD368B;stroke-width:2.1518;}
</style>
<g>
	<path class="st0" d="M542.368,59.013c16.538-1.657,33.213-1.94,49.812-1.183c17.701,0.807,34.553,1.861,51.368,7.841
		c32.939,11.716,63.505,33.64,74.07,68.409c2.922,9.616,1.598,20.167-0.829,29.736c-1.254,4.944-2.889,9.791-4.794,14.521
		c-0.566,1.405-6.4,12.982-6.138,13.207c9.984,8.586,18.14,19.259,28.533,27.263c12.114-5.124,28.794-5.567,41.689-3.294
		c13.438,2.369,29.333,11.256,33.022,25.2c0.753,4.024,1.334,8.048,1.937,12.093c1.291,0.129,3.916,0.366,5.229,0.495
		c17.107,1.485,34.343-0.732,51.45,0.925c15.753,3.147,30.632,9.451,45.095,16.282c15.72,7.424,30.185,16.706,42.032,29.551
		c11.251,12.2,23.032,26.145,29.064,41.765c13.837,35.828,5.6,74.689-18.242,104.338c-5.148,6.402-10.797,12.376-16.159,18.596
		c-10.608,11.792-21.475,23.95-35.591,31.632c-4.691,2.625-9.446,5.121-14.223,7.574c0.28-8.93,8.263-13.772,14.503-18.721
		c11.405-8.607,19.969-20.162,29.265-30.857c7.617-8.973,15.88-17.602,21.389-28.081c10.953-21.518,16.72-46.565,11.598-70.515
		c-3.378-14.546-13.212-26.317-22.701-37.377c-13.492-15.471-29.329-29.329-48.007-38.151c-16.72-7.703-34.73-12.007-52.569-16.268
		c-7.703-2.711-15.708-4.669-23.928-4.605c-8.865-0.495-19.668,0.409-25.65-7.574c-3.959-7.854-7.23-17.344-15.945-21.174
		c-17.257-8.995-37.183-5.423-55.452-2.302c-14.632,2.109-26.984,11.835-41.939,12.674c6.219-12.394,21.819-13.148,31.997-20.98
		c-5.982-6.671-11.189-15.235-20.098-18.269c-7.983,5.509-13.556,14.998-24.122,15.988c7.596-16.633,21.174-30.147,26.037-48.136
		c3.314-12.05,0.409-24.638-1.872-36.602c-3.013-11.813-8.306-23.713-18.721-30.771c-14.073-10.393-29.071-20.356-46.199-24.81
		c-26.941-7.488-55.43-13.492-83.382-8.306c-17.709,3.228-36.559,4.261-52.074,14.439c-11.856,5.724-25.908,8.112-35.139,18.269
		c-21.841,22.336-39.012,49.384-48.071,79.402c-2.948,10.178-5.874,20.378-9.791,30.233c-13.341-10.2-19.043-26.682-30.642-38.431
		c-12.545-12.739-25.628-25.327-41.465-33.934c-32.535-18.957-72.258-24.014-108.774-15.407
		c-40.045,7.596-74.668,33.052-98.746,65.286c-9.21,12.932-21.497,24.681-23.756,41.207c-13.384,31.438-19.581,66.017-18.14,100.167
		c2.432,29.157,14.589,57.001,32.126,80.241c9.748-0.99,19.431-2.604,29.028-4.562c6.262-0.99,14.073-3.056,18.785,2.647
		c-9.317,6.154-20.98,6.326-30.986,10.888c-19.603,7.876-32.923,25.757-42.089,44.069c-13.427,25.693-9.748,57.346,3.271,82.457
		c1.657,4.433,3.077,8.973,4.626,13.449c-3.809-1.937-7.876-3.723-10.824-6.907c-9.374-10.993-15.361-24.756-17.427-39.029
		c-2.312-15.974,1.211-32.06,5.16-47.473c3.681-14.367,12.915-25.219,22.853-35.742c2.926-3.099,6.541-6.24,6.929-10.759
		c-1.98-5.035-6.24-8.607-9.619-12.674c-12.686-13.761-21.786-33.356-24.901-51.624c-3.578-20.983-3.076-42.39-2.22-63.576
		c0.515-12.748,3.181-24.76,7.002-36.933c7.897-25.026,19.99-48.717,35.612-69.805c12.911-15.708,25.736-31.954,42.821-43.359
		c9.336-6.232,18.419-12.75,28.518-17.737c34.989-17.275,78.345-19.912,116.218-11.938c5.331,1.122,10.601,2.542,15.748,4.331
		c19.634,6.823,40.813,18.13,54.308,34.318c7.968,9.558,16.238,18.573,22.745,29.263c1.98,3.809,5.509,6.219,9.124,8.327
		c-1.657,1.14-3.314,2.259-4.949,3.378c2.776,0.258,5.552,0.516,8.327,0.796c0.344-2.475,0.71-4.949,1.076-7.424
		c1.248-12.911,7.402-24.509,11.727-36.538c10.845-25.585,25.413-51.923,50.89-65.393c16.873-10.966,36.067-19.033,55.881-22.095
		C532.146,60.17,537.25,59.526,542.368,59.013z"/>
	<path class="st1" d="M553.896,69.129c27.952-5.186,56.442,0.818,83.382,8.306c17.128,4.454,32.126,14.417,46.199,24.81
		c2.389,4.153,4.454,8.478,6.563,12.782c-14.848-0.624-28.598-8.457-43.596-6.907c-17.021,1.786-34.924,6.649-47.082,19.388
		c-12.029,11.856-16.935,28.641-20.055,44.736c-2.991,15.644-0.516,31.868,4.777,46.737c2.216,6.176,3.335,12.653,3.852,19.173
		c-8.435-1.678-16.892-4.476-25.563-3.766c-12.631,2.604-22.981,12.674-27.608,24.509c-3.357,8.801-0.215,18.183,1.248,27.005
		c-2.733,0.151-5.466,0.258-8.198,0.323c-12.76-4.088-26.295-5.293-38.668-10.501c-6.972-13.32-19.474-24.337-21.002-39.981
		c-1.356-10.049,8.198-17.774,16.956-20.184c10.888-1.872,21.647,2.109,32.342,3.594c-7.23-15.084-21.862-24.875-29.049-40.045
		c-8.672-17.86-16.225-39.055-8.478-58.615c3.335-14.288,11.211-26.962,21.905-36.925C517.337,73.39,536.187,72.357,553.896,69.129z
		"/>
	<path class="st2" d="M466.683,101.836c9.231-10.157,23.283-12.545,35.139-18.269c-10.694,9.963-18.57,22.637-21.905,36.925
		c-7.746,19.56-0.194,40.755,8.478,58.615c7.187,15.17,21.819,24.961,29.049,40.045c-10.694-1.485-21.454-5.466-32.342-3.594
		c-8.758,2.41-18.312,10.135-16.956,20.184c1.528,15.644,14.03,26.661,21.002,39.981c-5.853,1.14-11.727,2.367-17.731,2.496
		c2.238-1.678,4.497-3.357,6.735-5.035c-7.682-10.329-17.128-20.808-17.925-34.321c-1.377-10.974,3.529-22.831,13.363-28.318
		c6.993-3.486,14.955-3.938,22.529-5.336c-6.434-10.608-15.106-19.904-19.581-31.589c-4.799-12.201-9.64-24.853-9.403-38.173
		c0.215-11.684,5.229-22.508,9.533-33.138C473.332,102.181,470.019,101.987,466.683,101.836z"/>
	<path class="st1" d="M466.683,101.836c3.335,0.151,6.649,0.344,9.984,0.473c-4.304,10.63-9.317,21.453-9.533,33.138
		c-0.237,13.32,4.605,25.972,9.403,38.173c4.476,11.684,13.148,20.98,19.581,31.589c-7.574,1.399-15.536,1.851-22.529,5.336
		c-9.834,5.487-14.74,17.344-13.363,28.318c0.796,13.513,10.243,23.993,17.925,34.321c-2.238,1.678-4.497,3.357-6.735,5.035
		c-11.856-1.119-23.82-1.549-35.677,0.129c-11.986,1.614-24.186,0.753-36.129,2.625c-4.153,0.559-5.659,5.207-6.004,8.801
		c2.238,2.754,5.229,4.755,8.177,6.714l1.98,0.925c-3.572-0.689-7.144-1.377-10.716-2.044c1.894-35.591-14.417-68.535-32.621-98.015
		c-8.736-14.439-19-28.856-33.977-37.355c-3.357-2.216-7.596-2.173-11.039-0.151c-30.964,16.655-54.656,44.306-71.806,74.582
		c-9.855,20.507-18.592,42.003-21.497,64.726c-4.218,25.069-3.185,50.653-0.646,75.808c2.797,14.891,5.853,30.061,12.265,43.854
		c5.25,2.173,11.039,2.41,16.569,3.421c2.948,0.516,5.896,1.011,8.844,1.549c-17.838-0.796-38.238-3.787-53.257,8.349
		c15.364,7.273,32.428,0.538,48.502,3.701c6.455,0.99,11.641,5.229,16.763,8.952c4.691,16.418,17.085,28.963,22.981,44.822
		c5.939,15.02,6.262,31.589,4.734,47.469c-0.99,14.353-13.384,25.37-26.381,29.544c-17.882,4.153-35.44-3.852-53.214-5.1
		c3.464,13.04,13.578,23.412,15.235,37.011c1.399,10.716,1.119,21.69-1.011,32.277c-2.41,13.363-13.944,23.024-25.908,28.038
		c-10.35,4.368-23.713,1.7-31.696,10.974c8.241,1.657,16.87,3.809,25.241,1.657c16.031-4.519,31.804-14.137,38.668-29.953
		c9.102-21.195,5.444-45.08-2.324-66.039c9.296-0.194,18.506,1.183,27.758,1.764c16.827,0.775,33.374-9.898,39.4-25.671
		c8.801-22.099,5.444-47.404-3.594-68.879c-4.669-12.136-12.653-22.508-18.957-33.783c3.249,0.495,6.52,0.968,9.748,1.635
		c18.742,18.592,27.586,44.026,34.472,68.879c8.284,34.816,11.77,71.892,1.7,106.751c-5.358,18.592-17.171,35.914-34.192,45.554
		c-11.943,5.38-24.703,8.629-37.14,12.653c-13.578,4.411-27.93,2.97-41.939,2.862c9.382,8.457,22.185,11.598,31.502,20.141
		c10.781,9.597,22.917,19.926,25.542,34.945c3.142,17.559,3.572,36.817-5.057,52.977c-8.241,16.117-21.066,31.631-39.249,36.473
		c-25.09,6.133-51.084,5.487-76.69,6.197c1.872,11.899,12.416,19.194,22.379,24.294c12.502,6.735,27.349,6.498,39.894,13.148
		c-18.032,11.77-40.863,13.685-61.714,10.608c-16.913-3.507-35.053-11.06-43.854-26.876c-6.025-11.706-9.446-27.328-0.71-38.625
		c10.501-13.793,29.329-17.58,45.769-17.171c3.034-0.194,6.197,0.043,9.102-1.033c3.529-2.926,6.154-6.8,9.877-9.468
		c7.79-3.852,16.978-4.928,23.756-10.737c9.425-7.811,17.623-18.656,18.161-31.352c0.968-21.238-6.262-42.971-20.894-58.572
		c-7.703-8.069-14.977-16.569-23.003-24.294c-5.1-5.1-12.803-4.583-19.409-5.294c1.894,3.938,3.594,8.241,7.252,10.91
		c10.694,8.607,22.874,15.73,31.395,26.725c10.264,13.858,16.139,31.266,14.589,48.588c-0.473,13.772-11.146,25.714-23.605,30.448
		c-13.169,3.723-26.855,5.1-40.067,8.672c-11.405-4.755-23.089-9.145-33.525-15.88c-20.765-13.793-37.334-34.3-44.779-58.228
		c-9.984-33.245-5.014-70.364,12.825-100.08c7.316-13.879,19.969-23.562,31.933-33.202c2.302-1.829,4.583-3.636,6.864-5.444
		c17.085,12.631,35.849,24.466,57.346,27.285c11.039,1.42,23.326-1.721,30.749-10.415c4.863-5.917,0.904-13.987-4.002-18.441
		c-10.565-9.855-24.703-16.806-39.4-16.268c-13.535-0.409-26.446,5.681-39.916,5.078c-8.091-3.464-14.18-10.221-20.356-16.268
		c-13.018-25.112-16.698-56.765-3.271-82.457c9.167-18.312,22.486-36.193,42.089-44.069c10.006-4.562,21.669-4.734,30.986-10.888
		c-4.712-5.702-12.523-3.637-18.785-2.647c-9.597,1.958-19.28,3.572-29.028,4.562c-17.537-23.239-29.695-51.084-32.126-80.241
		c-1.442-34.149,4.756-68.729,18.14-100.167c2.991-4.626,6.219-9.102,9.36-13.642c6.133,12.739,11.103,26.876,22.422,36.086
		c10.781,9.898,25.477,13.018,39.292,16.225c-5.509,11.598-12.502,24.896-7.316,37.872c5.229,11.835,15.364,20.55,25.069,28.705
		c6.219,5.401,13.578,9.274,21.432,11.727c0.043-3.83,3.013-9.425-2.087-11.168c-14.073-6.563-27.22-16.225-34.967-29.953
		c-3.658-8.414-2.324-18.699,2.969-26.144c3.916-5.509,7.445-11.383,8.543-18.161c-14.288-1.7-29.501-3.271-41.444-12.115
		c-8.908-6.778-18.183-14.912-20.959-26.252c-2.754-11.232-4.11-23.734,1.442-34.386c24.079-32.234,58.701-57.69,98.746-65.286
		c36.516-8.607,76.238-3.55,108.774,15.407c15.837,8.607,28.92,21.195,41.465,33.934c11.598,11.749,17.301,28.232,30.642,38.431
		c3.916-9.855,6.843-20.055,9.791-30.233C427.671,151.22,444.843,124.172,466.683,101.836z"/>
	<path class="st3" d="M683.478,102.245c10.415,7.058,15.708,18.957,18.721,30.771c-19.581-14.18-45.209-19.495-68.815-14.439
		c-14.611,2.926-26.381,13.621-34.558,25.606c-11.857,18.376-11.77,41.551-8.93,62.467c1.657,15.407,12.459,27.608,15.364,42.627
		c-13.277-0.387-25.37-8.952-38.797-6.434c-9.64,1.463-18.785,8.284-21.174,18.011c-3.292,11.62,0.947,23.541,5.487,34.171
		c-3.013-2.69-5.853-5.573-8.758-8.392c-4.734,0.516-9.554,0.775-14.202-0.409c2.733-0.065,5.466-0.172,8.198-0.323
		c-1.463-8.822-4.605-18.204-1.248-27.005c4.626-11.835,14.977-21.905,27.608-24.509c8.672-0.71,17.128,2.087,25.563,3.766
		c-0.516-6.52-1.635-12.997-3.852-19.173c-5.293-14.869-7.768-31.094-4.777-46.737c3.12-16.095,8.026-32.88,20.055-44.736
		c12.158-12.739,30.061-17.602,47.082-19.388c14.998-1.549,28.748,6.283,43.596,6.907
		C687.932,110.723,685.866,106.398,683.478,102.245z"/>
	<path class="st4" d="M633.384,118.577c23.605-5.057,49.233,0.258,68.815,14.439c2.281,11.964,5.186,24.552,1.872,36.602
		c-4.863,17.989-18.441,31.502-26.037,48.136c10.565-0.99,16.139-10.479,24.122-15.988c8.908,3.034,14.116,11.598,20.098,18.269
		c-10.178,7.833-25.779,8.586-31.997,20.98c14.955-0.839,27.306-10.565,41.939-12.674c18.269-3.12,38.195-6.692,55.452,2.302
		c8.715,3.83,11.986,13.32,15.945,21.174c-15.988,5.638-33.547,7.381-48.028,16.784c-8.952,5.831-17.989,12.523-23.304,22.013
		c-5.745,10.006,2.324,23.498,13.255,25.176c10.178,1.657,20.55-1.571,29.458-6.391c17.236-10.157,31.868-26.08,36.495-45.984
		c13.901-0.796,27.801,0.516,41.702,0.581c17.838,4.261,35.849,8.564,52.569,16.268c18.678,8.822,34.515,22.68,48.007,38.151
		c9.489,11.06,19.323,22.831,22.701,37.377c5.121,23.95-0.646,48.997-11.598,70.515c-5.509,10.479-13.772,19.108-21.389,28.081
		c-9.296,10.694-17.86,22.25-29.265,30.857c-6.24,4.949-14.223,9.791-14.503,18.721c3.701,2.001,7.531,3.723,11.318,5.595
		c-7.015,2.647-12.158-2.733-16.375-7.488c-6.692,3.594-15.084,6.671-16.698,15.106c12.696,0.646,25.886,2.367,38.216-1.7
		c13.083-4.067,22.852-14.374,35.419-19.517c2.195,17.042-3.034,35.634-16.095,47.275c-9.984,8.543-23.347,11.641-36.064,13.212
		c-18.269,2.259-37.979-6.348-47.103-22.659c-5.272-9.21-3.83-20.292-1.915-30.233c3.938-18.656,7.144-37.463,10.694-56.184
		c3.013-15.471-0.172-31.395-5.595-45.941c-3.055-8.327-9.016-15.17-15.73-20.808c-15.988-13.341-33.181-25.865-52.999-32.858
		c-15.966-5.423-32.126-12.287-49.341-11.469c-17.688,0.646-35.634,2.259-52.332,8.478c-18.183,6.735-33.891,18.333-50.116,28.662
		c-9.984-13.277-18.699-27.565-30.513-39.378c-14.761-16.892-34.192-28.447-53.688-39.034c-4.54-10.63-8.779-22.551-5.487-34.171
		c2.389-9.726,11.534-16.547,21.174-18.011c13.427-2.518,25.52,6.047,38.797,6.434c-2.905-15.02-13.707-27.22-15.364-42.627
		c-2.84-20.916-2.927-44.09,8.93-62.467C607.003,132.198,618.773,121.504,633.384,118.577z"/>
	<path class="st5" d="M315.412,159.849c3.443-2.023,7.682-2.066,11.039,0.151c14.977,8.5,25.241,22.917,33.977,37.355
		c18.204,29.48,34.515,62.424,32.621,98.015c3.572,0.667,7.144,1.356,10.716,2.044c-4.626,0.538-9.231,1.27-13.815,2.001
		c-4.347-11.77-6.864-24.165-11.856-35.698c-6.283-14.396-12.158-29.006-19.861-42.713c-8.048-14.374-15.601-29.652-27.973-40.906
		c-4.476-4.261-11.577-7.467-17.107-3.12c-26.231,17.451-46.092,43.273-60.186,71.182c-12.093,25.025-17.408,52.805-18.893,80.413
		c-2.883,29.867,1.463,59.863,8.005,88.977c2.668,1.678,5.423,3.228,8.22,4.691c-5.53-1.011-11.318-1.248-16.569-3.421
		c-6.412-13.793-9.468-28.963-12.265-43.854c-2.539-25.155-3.572-50.74,0.646-75.808c2.905-22.723,11.641-44.22,21.497-64.726
		C260.756,204.155,284.447,176.504,315.412,159.849z"/>
	<path class="st6" d="M313.152,176.977c5.53-4.347,12.631-1.14,17.107,3.12c12.373,11.254,19.926,26.532,27.973,40.906
		c7.703,13.707,13.578,28.318,19.861,42.713c4.992,11.534,7.51,23.928,11.856,35.698c4.583-0.732,9.188-1.463,13.815-2.001
		c1.485-0.151,4.497-0.452,5.982-0.603c-4.82,2.302-9.468,4.928-14.116,7.51c1.915,2.324,3.787,4.777,6.111,6.735
		c7.445,0.409,14.353-3.507,21.432-5.358c-0.516,9.533-8.198,15.816-12.997,23.326c-1.786-2.905-3.701-5.724-5.638-8.543
		c-0.968,4.734-1.764,9.576-1.485,14.417c-2.13-4.734-4.863-9.145-7.962-13.298c-0.753,11.943,0.968,23.885,3.916,35.462
		c-2.711-2.066-5.509-3.959-8.306-5.853c-1.872,10.931,6.606,19.043,14.223,25.37c4.454,3.464,9.231,7.23,14.977,8.091
		c3.378-1.291,6.305-3.486,9.21-5.595c-0.473,0.904-1.399,2.711-1.872,3.615c-3.4,6.714-8.736,12.502-10.501,19.969
		c-1.98,8.607-1.807,17.494-2.432,26.252c-0.323,3.916-0.818,7.833-1.27,11.749c-6.907-0.882-13.793-2.281-20.765-2.13
		c-2.604,1.571-2.453,4.863-3.12,7.467c6.133,1.033,12.308,2.023,18.333,3.658c-6.886-0.108-13.75,0.344-20.614,0.796
		c-0.237,3.056-0.43,6.133-0.796,9.188c-0.581,4.304-1.442,8.586-2.281,12.868c11.405-0.796,23.283-1.786,34.214,2.389
		c-4.239,0.172-8.478,0.538-12.696,0.861c0.021,1.528,0.065,4.583,0.086,6.111c5.831,0.237,11.641,0.495,17.494,0.323
		c-3.744,1.42-7.424,3.013-10.974,4.82c-3.916,1.571-3.83,6.498-5.336,9.834c2.711-0.258,5.423-0.581,8.134-0.968
		c-0.71,2.432-1.399,4.863-2.087,7.295c5.659,1.291,12.029,1.915,16.289,6.348c9.812,9.619,16.44,22.25,27.5,30.642
		c6.52,4.971,15.063,4.734,22.788,5.917c3.099,1.162,6.219,2.346,9.253,3.723c10.092,5.358,20.98,9.812,32.643,9.619
		c16.203,0.882,34.666-2.604,44.951-16.397c1.506,1.033,3.034,2.066,4.54,3.12c2.345-1.743,4.734-3.443,7.015-5.272
		c10.113,3.766,17.236-7.897,21.626-15.256c15.471-34.859,13.621-77.594-7.596-109.721c-7.295-11.362-14.718-22.659-22.658-33.568
		c-25.693-33.611-68.6-52.655-110.753-49.75c-0.301-9.812-0.71-19.624-1.291-29.437c19.13-4.971,38.754,0,57.561,4.067
		c23.627,4.54,44.736,17.322,63.478,31.933c10.931,7.574,19.947,17.602,27.349,28.576c5.466,8.177,7.209,18.054,9.21,27.5
		c1.442,0.043,4.304,0.086,5.745,0.108c0.882-7.919,1.227-16.074-1.485-23.713c3.378,7.295,7.316,14.331,11.534,21.174
		c9.382-8.349,18.462-17.128,28.899-24.186c10.243,8.134,17.322,19.259,26.123,28.791c17.537,20.162,34.214,44.65,33.138,72.537
		c-5.53-6.843-9.253-14.869-11.77-23.261c-4.842,9.984-9.533,20.894-19.194,27.177c-12.115,8.328-24.208,17.516-31.933,30.319
		c-7.703,12.975-14.546,26.79-17.085,41.81c-2.324,13.191-4.088,26.532-4.519,39.937c-0.624,9.081,5.358,17.107,12.265,22.336
		c4.024,0.947,3.873-3.615,4.928-6.219l0.947,1.291c6.133,7.919,11.297,16.784,19,23.369c10.458,8.457,24.789,8.887,35.978,15.945
		c5.401,4.799,3.314,13.32,0.194,18.871c-7.703,13.191-18.183,25.779-32.535,31.911c-12.502-0.194-25.52,1.334-37.614-2.496
		c-11.211-5.552-20.829-15.988-23.024-28.619c-1.14-5.186-1.958-10.415-2.905-15.644c-5.874,3.916-10.372,9.468-12.244,16.354
		c-0.775,2.044-1.506,4.11-2.195,6.197c-5.659,12.33-13.04,24.574-13.148,38.603c-1.011,11.469,5.853,21.303,11.77,30.47
		c-7.79,1.851-15.471,4.131-23.239,6.068c-27.07,1.377-54.527,1.721-81.231-3.572c-24.186-3.766-47.598-11.017-71.225-17.128
		c-18.462-4.626-34.838-15.988-54.075-17.602c14.331,16.289,37.076,19.517,55.452,29.092c2.754,7.058,1.657,14.869,2.109,22.293
		c-0.151,13.836,4.82,27.005,5.724,40.734c1.162,22.142,2.345,44.284,2.625,66.469c26.037-1.054,49.104-13.793,72.516-23.756
		c30.706-14.245,65.071-21.281,98.918-18.204c24.853,2.582,49.986,8.586,71.031,22.594c8.091,7.79,15.644,16.16,24.38,23.24
		c11.706,9.683,20.464,22.293,28.684,34.902c9.963,14.697,10.608,32.836,14.288,49.621c3.916,16.956,5.035,34.364,4.562,51.729
		c-0.086,52.181-27.005,98.703-40.626,147.872c-3.12,8.306-4.024,17.537,1.872,24.875c4.648-4.089,9.296-8.177,14.03-12.179
		c6.671,2.152,13.406,4.304,19.668,7.51c5.186,2.647,7.402,8.435,9.855,13.363c5.681,13.341,11.276,26.812,15.278,40.798
		c4.971,18.462,11.405,36.559,15.385,55.301c7.273,33.009,11.362,66.641,15.515,100.145c2.066,38.926-0.775,77.831-2.754,116.692
		c-1.42,15.149-4.002,30.835-12.244,43.897c-4.756,7.66-12.696,13.427-21.798,14.374c-16.418,2.023-33.009,0.882-49.492,1.119
		c-21.69-0.258-43.509,0.086-64.942-3.701c-15.149-2.733-31.158-2.797-45.338-9.403c-6.542-2.647-6.369-11.039-4.842-16.762
		c3.615-11.125,11.534-20.098,17.193-30.19c22.615-35.935,29.028-78.713,37.291-119.597c3.357-17.688,1.011-35.741,2.195-53.601
		c1.635-25.8-2.733-51.428-7.144-76.755c-1.27-6.778-3.185-13.406-5.552-19.861c-10.307-26.618-17.58-54.376-29.544-80.348
		c-4.497-9.726-10.286-18.721-15.493-28.06c-0.904-4.045-3.077-8.715-0.516-12.566c3.12-5.315,7.639-9.597,11.749-14.116
		c20.851-21.755,34.515-50.503,37.764-80.456c1.162-5.874-1.721-11.103-5.078-15.622c-2.69,12.029-4.002,24.466-8.844,35.914
		c-5.767,13.75-11.232,27.909-20.399,39.83c-9.468,12.739-21.647,23.153-34.493,32.363c-14.417,10.35-32.471,12.975-49.276,17.344
		c-24.574,6.391-50.094,3.271-75.163,4.153c-6.929-0.172-14.288,0.538-20.786-2.324c-4.691-8.693-5.659-18.742-8.198-28.167
		c-5.057-19.926-11.383-39.572-18.893-58.701c-1.485-0.194-4.476-0.559-5.982-0.753c1.872,18.484,9.489,35.698,12.244,54.01
		c4.476,25.391,7.338,50.998,10.781,76.54c4.519,24.552,2.561,49.599,4.734,74.345c1.614,17.709,0.581,35.483,0.194,53.236
		c-0.581,45.554-3.766,91.258-12.373,136.08c-3.421,24.423-7.66,48.781-13.126,72.839c-4.971,17.516-8.65,37.377-23.498,49.578
		c-13.341,10.823-31.675,8.822-47.706,9.124c-31.675,0.452-63.005-5.1-93.797-11.964c-12.997-2.991-27.027-2.647-39.098-8.801
		c-7.036-3.68-9.619-12.567-5.616-19.431c13.944-29.867,35.311-55.969,46.35-87.234c7.617-20.485,16.87-40.411,22.357-61.628
		c26.08-79.595,38.862-162.849,46.802-246.059c2.69-19.797,1.313-39.894,4.54-59.648c1.248-10.867,5.1-22.508-0.409-32.858
		c-10.113,13.599-7.66,31.481-14.223,46.328c-1.42,4.691-6.434,1.614-9.167-0.043c-19.84-14.245-39.55-29.523-53.795-49.664
		c-12.05-15.17-19.216-33.353-25.714-51.407c-7.553-24.165-6.95-49.836-7.187-74.883c-0.775-6.434,3.464-11.383,8.414-14.761
		c9.038-5.229,18.161-10.393,26.596-16.569c4.239-3.013,7.402-7.187,10.243-11.469c-2.969-0.603-5.961-1.141-8.93-1.592
		c18.462-19.043,42.218-34.838,52.246-60.401c6.778-17.322,14.31-36.516,8.5-55.194c-5.035-13.836-9.188-28.361-18.312-40.196
		c11.318-4.863,23.218-9.145,32.6-17.365c12.674-10.867,26.015-21.432,35.483-35.354c4.067-5.659,1.721-13.04,3.486-19.345
		c2.001-5.358,6.262-9.855,6.757-15.73c1.764-23.734,1.657-47.533-0.409-71.246c0.129-14.159-6.886-26.941-8.349-40.82
		c-0.925-6.95-1.937-14.116-5.81-20.141c-6.047-9.812-11.362-20.055-17.236-29.975c-6.778-11.598-18.032-19.366-27.177-28.899
		c-7.252-7.811-18.29-9.253-27.651-13.277c-6.434-2.173-12.846-5.853-19.84-5.25c-2.84,2.797-4.906,6.262-7.144,9.533
		c-6.542-29.114-10.888-59.11-8.005-88.977c1.485-27.608,6.8-55.387,18.893-80.413C267.06,220.25,286.922,194.429,313.152,176.977
		 M289.267,262.921c-10.458,27.887-11.039,58.292-8.22,87.6c2.001,10.759,2.518,22.831,10.135,31.438
		c5.358-7.854,1.635-17.279,0.538-25.779c-5.315-31.051-1.119-62.488,3.12-93.345C293.442,262.856,290.666,262.899,289.267,262.921
		 M643.863,649.837c-0.108,6.219,0.602,13.836,7.445,16.289c6.886,3.421,12.717-2.561,16.59-7.553
		C660.324,654.571,652.234,651.623,643.863,649.837z"/>
	<path class="st7" d="M404.109,188.231c1.119-0.818,3.335-2.432,4.454-3.249c-0.366,2.475-0.732,4.949-1.076,7.424
		c-2.776-0.28-5.552-0.538-8.327-0.796C400.795,190.491,402.452,189.372,404.109,188.231z"/>
	<path class="st8" d="M105.438,230.192c2.259-16.526,14.546-28.275,23.756-41.207c-5.552,10.651-4.196,23.153-1.442,34.386
		c2.776,11.34,12.05,19.474,20.959,26.252c11.943,8.844,27.156,10.415,41.444,12.115c-1.097,6.778-4.626,12.653-8.543,18.161
		c-5.293,7.445-6.628,17.731-2.969,26.144c7.746,13.729,20.894,23.39,34.967,29.953c5.1,1.743,2.13,7.338,2.087,11.168
		c-7.854-2.453-15.213-6.326-21.432-11.727c-9.705-8.155-19.84-16.87-25.069-28.705c-5.186-12.975,1.808-26.274,7.316-37.872
		c-13.815-3.206-28.511-6.326-39.292-16.225c-11.318-9.21-16.289-23.347-22.422-36.086
		C111.657,221.089,108.429,225.565,105.438,230.192z"/>
	<path class="st9" d="M755.563,268.601c14.482-9.403,32.04-11.146,48.028-16.784c5.982,7.983,16.784,7.079,25.65,7.574
		c8.22-0.065,16.225,1.894,23.928,4.605c-13.901-0.065-27.801-1.377-41.702-0.581c-4.626,19.904-19.259,35.828-36.495,45.984
		c-8.908,4.82-19.28,8.048-29.458,6.391c-10.931-1.678-19-15.17-13.255-25.176C737.574,281.125,746.612,274.433,755.563,268.601
		 M793.865,263.652c-13.255,3.744-26.596,8.026-37.936,16.095c-6.133,4.454-13.492,9.339-15.256,17.15
		c0.602,8.736,12.308,9.36,18.957,8.069c17.516-5.25,32.083-18.204,42.003-33.31C804.969,266.643,799.352,259.994,793.865,263.652z"
		/>
	<path class="st10" d="M289.267,262.921c1.399-0.022,4.175-0.065,5.573-0.086c-4.239,30.857-8.435,62.295-3.12,93.345
		c1.097,8.5,4.82,17.925-0.538,25.779c-7.617-8.607-8.134-20.679-10.135-31.438C278.228,321.213,278.809,290.808,289.267,262.921z"
		/>
	<path class="st11" d="M793.865,263.652c5.487-3.658,11.103,2.991,7.768,8.005c-9.92,15.106-24.488,28.06-42.003,33.31
		c-6.649,1.291-18.355,0.667-18.957-8.069c1.764-7.811,9.124-12.696,15.256-17.15C767.269,271.678,780.61,267.396,793.865,263.652z"
		/>
	<path class="st12" d="M471.417,278.22c6.004-0.129,11.878-1.356,17.731-2.496c12.373,5.207,25.908,6.412,38.668,10.501
		c4.648,1.183,9.468,0.925,14.202,0.409c2.905,2.819,5.745,5.702,8.758,8.392c19.495,10.587,38.926,22.142,53.688,39.034
		c11.813,11.813,20.528,26.101,30.513,39.378c16.225-10.329,31.933-21.927,50.116-28.662c16.698-6.219,34.644-7.833,52.332-8.478
		c17.214-0.818,33.375,6.047,49.341,11.469c19.818,6.993,37.011,19.517,52.999,32.858c6.714,5.638,12.674,12.48,15.73,20.808
		c5.423,14.546,8.607,30.47,5.595,45.941c-3.55,18.721-6.757,37.527-10.694,56.184c-1.915,9.941-3.357,21.023,1.915,30.233
		c9.124,16.311,28.834,24.918,47.103,22.659c12.717-1.571,26.08-4.669,36.064-13.212c13.061-11.641,18.29-30.233,16.095-47.275
		c-12.567,5.143-22.336,15.45-35.419,19.517c-12.33,4.067-25.52,2.345-38.216,1.7c1.614-8.435,10.006-11.512,16.698-15.106
		c4.218,4.755,9.36,10.135,16.375,7.488c3.507-1.829,6.95-3.787,10.372-5.788c12.308-6.993,23.648-15.794,32.6-26.833
		c2.582,0.301,5.186,0.624,7.79,0.947c0.878,0.109,1.451,21.609,1.441,23.412c-0.046,8.147-0.397,17.703-3.262,25.408
		c-2.715,7.302-7.913,14.252-12.983,20.084c-6.199,7.129-12.266,11.972-21.158,15.253c-9.244,3.411-20.407,6.547-30.347,5.688
		c-4.583-0.396-9.073-0.913-13.577-1.971c-14.472-3.401-32.15-10.729-39.776-24.267c-6.402-11.365-4.863-22.307-4.519-34.602
		c2.862-16.117,9.059-31.502,11.362-47.77c2.453-12.545,3.852-25.779-0.301-38.13c-6.628-18.936-16.676-38.969-35.612-48.093
		c-15.973-7.696-32.286-14.799-49.218-20.123c-16.496-5.187-35.091-10.698-52.218-5.29c-0.732,0.172-2.216,0.516-2.969,0.689
		c-8.112,1.7-16.354,3.077-24.122,6.047c-2.216,0.818-4.39,1.764-6.52,2.797c-6.412,3.594-12.631,7.51-18.764,11.577
		c-10.436,7.058-19.517,15.837-28.899,24.186c-4.218-6.843-8.155-13.879-11.534-21.174c-7.445-15.256-17.86-29.415-31.675-39.507
		c-12.954-9.576-26.36-18.828-41.25-25.155c-12.846-5.53-25.391-12.76-39.615-13.858c-23.412-2.259-47.017-1.786-70.493-0.861
		c-11.448,0.043-23.132,0.108-33.977,4.261c-2.948-1.958-5.939-3.959-8.177-6.714c0.344-3.594,1.851-8.241,6.004-8.801
		c11.943-1.872,24.143-1.011,36.129-2.625C447.597,276.671,459.561,277.101,471.417,278.22z"/>
	<path class="st13" d="M401.785,296.489c10.845-4.153,22.529-4.218,33.977-4.261c-8.693,1.442-17.322,3.185-26.015,4.583
		c-1.485,0.151-4.497,0.452-5.982,0.603L401.785,296.489z"/>
	<path class="st14" d="M435.762,292.228c23.476-0.925,47.081-1.399,70.493,0.861c14.223,1.097,26.768,8.327,39.615,13.858
		c14.891,6.326,28.296,15.579,41.25,25.155c13.815,10.092,24.229,24.251,31.675,39.507c2.711,7.639,2.367,15.794,1.485,23.713
		c-1.442-0.022-4.304-0.065-5.745-0.108c-2.001-9.446-3.744-19.323-9.21-27.5c-7.402-10.974-16.418-21.002-27.349-28.576
		c-18.742-14.611-39.851-27.393-63.478-31.933c-18.807-4.067-38.431-9.038-57.561-4.067c0.581,9.812,0.99,19.624,1.291,29.437
		c42.154-2.905,85.061,16.139,110.753,49.75c7.94,10.91,15.364,22.207,22.658,33.568c21.217,32.126,23.067,74.861,7.596,109.721
		c-4.39,7.359-11.512,19.022-21.626,15.256c10.07-14.288,20.464-29.996,20.916-48.114c0.603-15.084,1.614-30.857-4.11-45.188
		c-13.104-34.171-34.063-67.696-66.663-86.137c-12.007-6.757-24.81-12.351-38.238-15.493c-11.146-2.561-22.572-0.129-33.826-1.054
		c-8.801-6.929-10.372-19.474-10.307-29.996c0.194-3.378,0.43-6.778,0.689-10.135c-2.69,0.409-5.401,0.818-8.091,1.227
		c-0.344,1.377-1.011,4.11-1.356,5.487c-1.183,5.552-2.883,11.491-0.796,17.064c2.195,7.596,7.682,13.858,9.339,21.626
		c-1.205,6.176-9.64,8.371-14.503,5.035c-9.533-6.219-14.761-16.72-20.485-26.166c4.798-7.51,12.48-13.793,12.997-23.326
		c-7.079,1.851-13.987,5.767-21.432,5.358c-2.324-1.958-4.196-4.411-6.111-6.735c4.648-2.582,9.296-5.207,14.116-7.51
		C418.44,295.413,427.069,293.67,435.762,292.228z"/>
	<path class="st15" d="M437.978,305.978c2.69-0.409,5.401-0.818,8.091-1.227c-0.258,3.357-0.495,6.757-0.689,10.135
		c-2.926-1.14-5.853-2.281-8.758-3.421C436.967,310.088,437.634,307.355,437.978,305.978z"/>
	<path class="st16" d="M436.623,311.465c2.905,1.14,5.831,2.281,8.758,3.421c-0.065,10.522,1.506,23.067,10.307,29.996
		c11.254,0.925,22.68-1.506,33.826,1.054c13.427,3.142,26.23,8.736,38.238,15.493c32.6,18.441,53.558,51.966,66.663,86.137
		c2.518,22.68,5.96,47.232-4.368,68.557c-2.927,6.714-7.639,12.394-12.631,17.688c1.184-4.433,2.41-8.844,3.938-13.191
		c11.275-25.779,10.931-56.119,0.323-82.048c-11.813-29.114-31.868-56.141-60.143-70.945c-13.234-7.639-27.78-13.965-43.337-13.901
		c-19.237-1.162-40.26,7.381-49.083,25.348c-2.905,2.109-5.831,4.304-9.21,5.595c-5.745-0.861-10.522-4.626-14.977-8.091
		c-7.617-6.326-16.095-14.439-14.223-25.37c2.797,1.894,5.595,3.787,8.306,5.853c3.594,4.799,7.058,9.812,11.77,13.621
		c3.852,3.228,9.231,2.883,13.901,3.809c0.301-3.572,0.796-7.122,0.603-10.716c-7.23-9.748-17.882-17.064-22.228-28.877
		c-0.28-4.842,0.516-9.683,1.485-14.417c1.937,2.819,3.852,5.638,5.638,8.543c5.724,9.446,10.953,19.947,20.485,26.166
		c4.863,3.335,13.298,1.14,14.503-5.035c-1.657-7.768-7.144-14.03-9.339-21.626C433.739,322.956,435.439,317.017,436.623,311.465z"
		/>
	<path class="st17" d="M395.093,321.6c3.099,4.153,5.831,8.564,7.962,13.298c4.347,11.813,14.998,19.13,22.228,28.877
		c0.194,3.594-0.301,7.144-0.603,10.716c-4.669-0.925-10.049-0.581-13.901-3.809c-4.712-3.809-8.177-8.822-11.77-13.621
		C396.061,345.485,394.34,333.543,395.093,321.6z"/>
	<path class="st18" d="M684.511,354.222c7.768-2.97,16.009-4.347,24.122-6.047c0.516,16.633,1.442,33.31-0.452,49.879
		c-1.162,10.651,5.53,19.689,10.2,28.641c7.639,13.47,12.394,28.296,15.106,43.51c-4.971,0.452-10.243,1.98-14.998-0.28
		c1.076-27.887-15.601-52.375-33.138-72.537c-8.801-9.532-15.88-20.657-26.123-28.791c6.133-4.067,12.351-7.983,18.764-11.577
		c-1.248,2.195-2.475,4.411-3.701,6.606c5.401,7.144,11.103,14.718,20.012,17.623c0.646-8.693,0.796-17.408,0.796-26.101
		C691.569,354.781,688.04,354.415,684.511,354.222z"/>
	<path class="st19" d="M429.113,379.075c8.822-17.968,29.846-26.51,49.083-25.348c15.558-0.065,30.104,6.262,43.337,13.901
		c28.275,14.804,48.33,41.831,60.143,70.945c10.608,25.929,10.953,56.27-0.323,82.048c-5.25,7.381-10.264,14.89-15.299,22.4
		c-10.286,13.793-28.748,17.279-44.951,16.397c-11.663,0.194-22.551-4.261-32.643-9.619c11.555-4.261,24.961-5.896,33.224-16.074
		c11.706-11.555,22.529-26.037,23.433-43.101c0.947-17.344,2.001-35.397-4.002-52.031c-2.582-6.993-6.843-13.169-10.651-19.517
		c-6.09-10.2-12.932-20.119-22.056-27.844c-8.349-7.015-17.731-13.578-28.662-15.558c-7.66-1.313-15.471-1.592-23.218-1.033
		c-10.221,0.753-19.388,5.874-29.286,8.048C427.714,381.786,428.639,379.979,429.113,379.075z"/>
	<path class="st20" d="M677.991,357.019c2.13-1.033,4.304-1.98,6.52-2.797c3.529,0.194,7.058,0.559,10.587,0.925
		c0,8.693-0.151,17.408-0.796,26.101c-8.908-2.905-14.611-10.479-20.012-17.623C675.516,361.43,676.743,359.214,677.991,357.019z"/>
	<path class="st21" d="M427.241,382.69c9.898-2.173,19.065-7.295,29.286-8.048c7.747-0.559,15.558-0.28,23.218,1.033
		c10.931,1.98,20.313,8.543,28.662,15.558c-2.023,0.387-4.045,0.753-6.068,1.14c-9.834-3.142-20.227-5.164-30.556-3.464
		c4.648-2.173,9.489-3.895,14.288-5.659c-0.237-0.882-0.753-2.668-0.99-3.551c-12.717-2.733-26.231-4.583-38.883-0.603
		c-6.95,2.367-12.954,6.8-18.376,11.641c-3.056,2.948-5.81,6.176-8.435,9.511c-1.27,6.649-0.581,13.427-0.215,20.119
		c-0.172,1.764-0.452,3.486-0.775,5.229c-1.011,0.818-3.056,2.475-4.088,3.314c0.624-8.758,0.452-17.645,2.432-26.252
		C418.504,395.192,423.841,389.404,427.241,382.69z"/>
	<path class="st22" d="M446.198,379.096c12.653-3.981,26.166-2.13,38.883,0.603c0.237,0.882,0.753,2.668,0.99,3.551
		c-4.799,1.764-9.64,3.486-14.288,5.659c-3.873,2.109-7.144,5.143-10.307,8.177c-10.587-4.949-22.465-4.024-33.654-6.348
		C433.244,385.896,439.248,381.464,446.198,379.096z"/>
	<path class="st23" d="M419.387,400.249c2.625-3.335,5.38-6.563,8.435-9.511c11.189,2.324,23.067,1.399,33.654,6.348
		c-1.377,1.7-2.668,3.443-3.873,5.25c-4.562-0.581-9.102-1.097-13.664-1.614c-1.184-1.549-2.367-3.077-3.551-4.626
		c-6.649,3.077-13.212,6.391-19.581,10.027C420.441,404.638,419.731,401.712,419.387,400.249z"/>
	<path class="st19" d="M461.476,397.086c3.163-3.034,6.434-6.068,10.307-8.177c10.329-1.7,20.722,0.323,30.556,3.464
		c6.972,11.362,9.167,24.939,6.047,37.915c-1.27,3.787-3.615,7.079-6.004,10.221c-5.724,6.305-11.706,13.169-20.033,15.966
		c-9.016,2.475-19.495,0-25.972-6.886c-7.617-14.955-5.745-32.471,1.227-47.254C458.808,400.528,460.099,398.786,461.476,397.086z"
		/>
	<path class="st24" d="M502.339,392.373c2.023-0.387,4.045-0.753,6.068-1.14c9.124,7.725,15.966,17.645,22.056,27.844
		c2.926,7.015,4.325,14.525,5.659,21.97c-6.326-6.262-13.449-11.727-21.669-15.213c-1.205-5.401-2.259-10.845-3.249-16.311
		c-0.839,6.929-1.485,13.901-2.819,20.765C511.506,417.313,509.311,403.735,502.339,392.373z"/>
	<path class="st25" d="M420.807,406.123c6.369-3.637,12.932-6.95,19.581-10.027c1.184,1.549,2.367,3.077,3.551,4.626
		c-5.207,3.895-10.221,8.048-15.213,12.222c-3.185,2.475-6.348,4.992-9.554,7.424c-0.366-6.692-1.054-13.47,0.215-20.119
		C419.731,401.712,420.441,404.638,420.807,406.123z"/>
	<path class="st26" d="M443.939,400.722c4.562,0.516,9.102,1.033,13.664,1.614c-6.972,14.783-8.844,32.299-1.227,47.254
		c-4.842-6.111-9.231-13.47-8.887-21.518c0.904-8.392,3.852-16.397,5.681-24.595c-8.543,2.023-16.999,4.734-24.444,9.468
		C433.718,408.77,438.731,404.617,443.939,400.722z"/>
	<path class="st27" d="M428.726,412.944c7.445-4.734,15.902-7.445,24.444-9.468c-1.829,8.198-4.777,16.203-5.681,24.595
		c-0.344,8.048,4.045,15.407,8.887,21.518c6.477,6.886,16.956,9.36,25.972,6.886c8.327-2.797,14.309-9.662,20.033-15.966
		c1.506,1.42,2.991,2.862,4.454,4.325c0.301,4.239,1.076,8.564,0.323,12.803c-2.302,5.466-6.735,9.791-8.801,15.385
		c2.453,5.229,6.778,9.231,10.587,13.47c-1.829,8.715-3.594,17.451-6.455,25.908c-7.51,12.61-18.635,25.994-34.601,26.23
		c-13.75-10.587-23.907-24.875-32.772-39.572c-4.153-6.498-6.735-13.772-8.306-21.281c-2.948-2.238-5.896-4.454-8.995-6.477
		c1.399-3.443,2.797-6.886,4.153-10.329c-2.711-4.928-6.757-9.812-6.369-15.773c0.258-6.606,1.7-13.104,2.797-19.603
		c0.323-1.743,0.603-3.464,0.775-5.229C422.378,417.937,425.541,415.419,428.726,412.944z"/>
	<path class="st28" d="M249.222,408.017c6.993-0.603,13.406,3.077,19.84,5.25c9.36,4.024,20.399,5.466,27.651,13.277
		c9.145,9.533,20.399,17.301,27.177,28.899c5.874,9.92,11.189,20.162,17.236,29.975c3.873,6.025,4.885,13.191,5.81,20.141
		c1.463,13.879,8.478,26.661,8.349,40.82c2.066,23.713,2.173,47.512,0.409,71.246c-0.495,5.874-4.755,10.372-6.757,15.73
		c-1.764,6.305,0.581,13.685-3.486,19.345c-9.468,13.922-22.809,24.488-35.483,35.354c-9.382,8.22-21.281,12.502-32.6,17.365
		c9.124,11.835,13.277,26.36,18.312,40.196c5.81,18.678-1.721,37.872-8.5,55.194c-10.027,25.563-33.783,41.358-52.246,60.401
		c-10.436,0.215-21.238,0.818-30.792-4.218c0.538-1.528,1.592-4.583,2.109-6.111c9.877-2.195,19.711-4.906,28.856-9.317
		c9.554-4.218,17.494-11.275,24.294-19.065c7.811-8.93,16.225-17.989,19.861-29.566c4.669-14.977,4.885-30.964,3.68-46.479
		c-1.011-12.782-6.004-25.607-15.299-34.644c-6.154-5.207-13.191-9.382-18.484-15.579c9.597-1.27,19.409-1.485,28.813-3.916
		c25.563-7.703,47.899-27.113,57.087-52.439c13.987-37.097,13.191-78.541,3.228-116.52c-4.261-19.345-11.254-38.044-20.421-55.56
		c-12.416-21.733-33.31-40.239-58.723-44.004c-2.948-0.538-5.896-1.033-8.844-1.549c-2.797-1.463-5.552-3.013-8.22-4.691
		C244.316,414.279,246.382,410.814,249.222,408.017z"/>
	<path class="st29" d="M511.204,409.523c0.99,5.466,2.044,10.91,3.249,16.311c8.22,3.486,15.342,8.952,21.669,15.213
		c-1.334-7.445-2.733-14.955-5.659-21.97c3.809,6.348,8.069,12.524,10.651,19.517c-0.452,6.068-1.399,12.072-2.367,18.075
		c-7.747-6.498-15.988-12.523-25.434-16.289c-1.872,1.872-3.766,3.744-5.616,5.616l-0.861-1.162
		c-1.463-1.463-2.948-2.905-4.454-4.325c2.389-3.142,4.734-6.434,6.004-10.221C509.719,423.424,510.365,416.452,511.204,409.523z"/>
	<path class="st30" d="M205.885,432.139c15.02-12.136,35.419-9.145,53.257-8.349c25.413,3.766,46.307,22.271,58.723,44.004
		c9.167,17.516,16.16,36.215,20.421,55.56c9.963,37.979,10.759,79.423-3.228,116.52c-9.188,25.327-31.524,44.736-57.087,52.439
		c-9.403,2.432-19.216,2.647-28.813,3.916c5.293,6.197,12.33,10.372,18.484,15.579c9.296,9.038,14.288,21.862,15.299,34.644
		c1.205,15.515,0.99,31.502-3.68,46.479c-3.637,11.577-12.05,20.636-19.861,29.566c-6.8,7.789-14.74,14.847-24.294,19.065
		c-14.008,3.464-28.253,7.316-42.842,6.391c-6.843-0.28-13.707-0.258-20.528,0.172c2.647,4.002,5.681,8.457,11.06,8.543
		c18.14,3.636,36.043,9.425,54.806,8.564c-1.291,3.013-2.561,6.047-3.981,9.038c-8.435,6.176-17.559,11.34-26.596,16.569
		c-8.134,3.701-16.827,6.068-25.606,7.66c-12.05,1.442-24.38,1.592-36.43,0.237c-24.423-6.886-50.073-23.907-54.656-50.567
		c0-8.865,0.194-17.752,0.603-26.596c3.723-9.274,11.749-18.247,21.669-20.722c4.949-0.861,9.92-1.463,14.89-2.13
		c-0.775-2.819-1.14-5.831-2.668-8.37c-2.453-1.162-5.078-1.915-7.66-2.647c-9.871-2.188-18.211-8.445-25.95-14.706
		c-18.841-15.243-34.546-35.806-41.231-59.336c-2.632-9.263-2.374-19.216-2.573-28.794c-0.38-18.319-1.729-38.518,6.06-55.58
		c4.957-10.858,9.334-22.389,17.468-31.363c5.487-6.054,11.802-11.311,18.382-16.131c3.376-2.473,6.836-4.828,10.338-7.117
		c2.372-1.551,2.258-2.061,3.869-0.081c0.332,0.408,2.723,5.891,2.618,5.976c-11.964,9.64-24.617,19.323-31.933,33.202
		c-17.838,29.716-22.809,66.835-12.825,100.08c7.445,23.928,24.014,44.435,44.779,58.228c10.436,6.735,22.121,11.125,33.525,15.88
		c6.369,2.668,12.158,6.542,17.645,10.716c-1.205,1.183-3.594,3.507-4.799,4.691c-16.44-0.409-35.268,3.378-45.769,17.171
		c-8.736,11.297-5.315,26.919,0.71,38.625c8.801,15.816,26.941,23.369,43.854,26.876c20.851,3.077,43.682,1.162,61.714-10.608
		c-12.545-6.649-27.392-6.412-39.894-13.148c-9.963-5.1-20.507-12.394-22.379-24.294c25.606-0.71,51.6-0.065,76.69-6.197
		c18.183-4.842,31.008-20.356,39.249-36.473c8.629-16.16,8.198-35.419,5.057-52.977c-2.625-15.02-14.761-25.348-25.542-34.945
		c-9.317-8.543-22.121-11.684-31.502-20.141c14.008,0.108,28.361,1.549,41.939-2.862c12.437-4.024,25.198-7.273,37.14-12.653
		c17.021-9.64,28.834-26.962,34.192-45.554c10.07-34.859,6.585-71.935-1.7-106.751c-6.886-24.853-15.73-50.288-34.472-68.879
		c-2.453-2.41-4.842-5.1-7.983-6.628c-4.261-0.301-8.478,0.43-12.696,0.861c-5.121-3.723-10.307-7.962-16.763-8.952
		C238.312,432.676,221.249,439.412,205.885,432.139z"/>
	<path class="st31" d="M414.308,428.911c1.033-0.839,3.077-2.496,4.088-3.314c-1.097,6.498-2.539,12.997-2.797,19.603
		c-0.387,5.961,3.658,10.845,6.369,15.773c-1.356,3.443-2.754,6.886-4.153,10.329c-10.264-2.001-20.743-2.345-31.094-3.615
		c3.916-6.412,11.146-8.048,18.226-7.725c4.174,0.968,8.284,2.238,12.437,3.335c-1.184-5.724-3.12-12.61-9.898-13.642
		c-6.025-1.635-12.201-2.625-18.333-3.658c0.667-2.604,0.516-5.896,3.12-7.467c6.972-0.151,13.858,1.248,20.765,2.13
		C413.491,436.743,413.986,432.827,414.308,428.911z"/>
	<path class="st32" d="M541.114,438.594c6.004,16.633,4.949,34.687,4.002,52.031c-0.904,17.064-11.727,31.545-23.433,43.101
		c-10.264,4.024-20.937,11.534-32.32,6.843c8.822-6.972,19.904-11.318,26.768-20.571c4.863-6.628,10.156-13.169,13.234-20.873
		c-1.743-4.863-4.82-9.102-7.51-13.47c1.334-8.177,7.811-20.464-2.475-25.198c-2.797-0.43-5.595-0.818-8.392-1.162
		c-0.968-4.476-1.958-8.952-3.292-13.298c1.851-1.872,3.744-3.744,5.616-5.616c9.446,3.766,17.688,9.791,25.434,16.289
		C539.716,450.666,540.662,444.662,541.114,438.594z"/>
	<path class="st33" d="M271.149,444.791c4.218-0.43,8.435-1.162,12.696-0.861c3.142,1.528,5.53,4.218,7.983,6.628
		c-3.228-0.667-6.498-1.14-9.748-1.635c6.305,11.275,14.288,21.647,18.957,33.783c9.038,21.475,12.394,46.78,3.594,68.879
		c-6.025,15.773-22.572,26.446-39.4,25.671c-9.253-0.581-18.462-1.958-27.758-1.764c7.768,20.959,11.426,44.844,2.324,66.039
		c-6.864,15.816-22.637,25.434-38.668,29.953c-8.371,2.152-16.999,0-25.241-1.657c7.983-9.274,21.346-6.606,31.696-10.974
		c11.964-5.014,23.498-14.675,25.908-28.038c2.13-10.587,2.41-21.561,1.011-32.277c-1.657-13.599-11.77-23.971-15.235-37.011
		c17.774,1.248,35.333,9.253,53.214,5.1c12.997-4.174,25.391-15.192,26.381-29.544c1.528-15.88,1.205-32.449-4.734-47.469
		C288.234,473.754,275.84,461.209,271.149,444.791z"/>
	<path class="st34" d="M506.836,444.834l0.861,1.162c1.334,4.347,2.324,8.822,3.292,13.298c-4.024,4.842-7.66,9.984-10.802,15.428
		c3.938,2.819,7.897,5.638,11.835,8.478c-1.162,10.264-3.809,20.464-9.532,29.2c2.862-8.457,4.626-17.193,6.455-25.908
		c-3.809-4.239-8.134-8.241-10.587-13.47c2.066-5.595,6.499-9.92,8.801-15.385C507.912,453.398,507.137,449.073,506.836,444.834z"/>
	<path class="st35" d="M594.415,447.567c5.724,14.331,4.712,30.104,4.11,45.188c-0.452,18.118-10.845,33.826-20.916,48.114
		c-2.281,1.829-4.669,3.529-7.015,5.272c-1.506-1.054-3.034-2.087-4.54-3.12c5.035-7.51,10.049-15.02,15.299-22.4
		c-1.528,4.347-2.754,8.758-3.938,13.191c4.992-5.293,9.705-10.974,12.631-17.688C600.375,494.799,596.932,470.247,594.415,447.567z
		"/>
	<path class="st36" d="M687.523,473.84c9.662-6.283,14.353-17.193,19.194-27.177c2.518,8.392,6.24,16.418,11.77,23.261
		c4.755,2.259,10.027,0.732,14.998,0.28c-0.56,0.366-1.657,1.097-2.195,1.463c-9.274,1.119-19.086,0.624-27.479,5.401
		c-32.428,14.546-53.472,49.276-54.548,84.372c-0.538,13.535-0.904,27.242,1.915,40.583c-1.054,2.604-0.904,7.166-4.928,6.219
		c-6.907-5.229-12.889-13.255-12.265-22.336c0.43-13.406,2.195-26.747,4.519-39.937c2.539-15.02,9.382-28.834,17.085-41.81
		C663.315,491.356,675.408,482.168,687.523,473.84z"/>
	<path class="st37" d="M386.873,450.45c6.864-0.452,13.729-0.904,20.614-0.796c6.778,1.033,8.715,7.919,9.898,13.642
		c-4.153-1.097-8.263-2.367-12.437-3.335c-6.197-1.549-12.61-1.14-18.871-0.323C386.443,456.583,386.636,453.506,386.873,450.45z"/>
	<path class="st38" d="M386.077,459.639c6.262-0.818,12.674-1.227,18.871,0.323c-7.079-0.323-14.31,1.313-18.226,7.725
		c10.35,1.27,20.829,1.614,31.094,3.615c3.099,2.023,6.047,4.239,8.995,6.477c-0.473,2.324-0.947,4.648-1.399,6.972
		c-4.519,0.689-9.038,1.334-13.492,2.259c3.551-1.808,7.23-3.4,10.974-4.82l2.302-0.796c-2.324-2.259-4.583-4.583-7.187-6.498
		c-10.931-4.175-22.809-3.185-34.214-2.389C384.635,468.224,385.496,463.942,386.077,459.639z"/>
	<path class="st7" d="M510.989,459.294c2.797,0.344,5.595,0.732,8.392,1.162c1.162,4.454,3.292,8.908,2.819,13.599
		c-1.097,4.863-6.584,6.498-10.178,9.145c-3.938-2.84-7.897-5.659-11.835-8.478C503.329,469.279,506.965,464.136,510.989,459.294z"
		/>
	<path class="st39" d="M519.381,460.456c10.286,4.734,3.809,17.021,2.475,25.198c2.69,4.368,5.767,8.607,7.51,13.47
		c-3.077,7.703-8.37,14.245-13.234,20.873c-6.864,9.253-17.946,13.599-26.768,20.571c11.383,4.691,22.056-2.819,32.32-6.843
		c-8.263,10.178-21.669,11.813-33.224,16.074c-3.034-1.377-6.154-2.561-9.253-3.723c-3.916-2.302-7.682-4.777-11.318-7.445
		c15.966-0.237,27.091-13.621,34.601-26.23c5.724-8.736,8.37-18.936,9.532-29.2c3.594-2.647,9.081-4.282,10.178-9.145
		C522.673,469.365,520.543,464.91,519.381,460.456z"/>
	<path class="st27" d="M703.812,477.068c8.392-4.777,18.204-4.282,27.479-5.401c0.344,3.507,0.624,7.036,0.839,10.587
		c-7.703-0.172-15.708-0.215-23.003,2.668c-6.671,2.733-11.383,8.414-16.655,13.083c-1.893,1.248-3.787,2.496-5.616,3.809
		c-7.94,6.24-14.202,14.31-19.56,22.809c-3.615,6.305-12.308,15.751-4.476,22.185c8.801,7.467,20.313,1.506,29.329-2.216
		c5.595,21.776,0.065,44.521-9.382,64.382c-1.743,2.604-3.529,5.186-5.272,7.79c-9.683-1.678-18.269-6.821-25.37-13.449
		l-0.947-1.291c-2.819-13.341-2.453-27.048-1.915-40.583C650.34,526.345,671.385,491.614,703.812,477.068 M660.97,568.219
		c-0.56,4.691-0.452,9.446,0.323,14.137c4.218,0,8.457,0,12.717,0.022c0.194-3.249,1.27-6.585,0.344-9.769
		C672.977,566.583,665.403,569.359,660.97,568.219z"/>
	<path class="st40" d="M405.314,475.756c4.217-0.323,8.457-0.689,12.696-0.861c2.604,1.915,4.863,4.239,7.187,6.498l-2.302,0.796
		c-5.853,0.172-11.663-0.086-17.494-0.323C405.378,480.339,405.335,477.283,405.314,475.756z"/>
	<path class="st41" d="M426.81,477.778c1.571,7.51,4.153,14.783,8.306,21.281c-2.668-2.453-5.358-5.143-8.887-6.283
		c-4.024-0.194-7.703,2.087-11.512,3.099c-2.711,0.387-5.423,0.71-8.134,0.968c1.506-3.335,1.42-8.263,5.336-9.834
		c4.454-0.925,8.973-1.571,13.492-2.259C425.864,482.426,426.337,480.102,426.81,477.778z"/>
	<path class="st42" d="M709.127,484.922c7.295-2.883,15.299-2.84,23.003-2.668c0.839,0.904,2.518,2.754,3.357,3.658
		c-5.186-0.108-10.35-0.366-15.515-0.387c-8.048,0.022-14.783,4.583-21.281,8.736c-2.087,1.248-4.174,2.475-6.219,3.744
		C697.744,493.336,702.457,487.655,709.127,484.922z"/>
	<path class="st43" d="M698.691,494.261c6.498-4.153,13.234-8.715,21.281-8.736c-0.043,7.381-0.818,14.74-2.195,21.991
		c1.334,1.011,3.981,2.991,5.315,3.981c-1.033,5.293-3.163,10.307-6.262,14.74c-1.377-3.12-2.883-6.154-4.368-9.188l-0.71-1.485
		C707.901,508.162,702.995,501.384,698.691,494.261z"/>
	<path class="st44" d="M719.972,485.525c5.164,0.022,10.329,0.28,15.515,0.387c-0.366,6.004-0.775,12.007-1.592,17.968
		c-4.088-0.775-8.177-1.528-12.244-2.302c-1.291,1.98-2.582,3.959-3.873,5.939C719.155,500.265,719.929,492.905,719.972,485.525z"/>
	<path class="st45" d="M414.717,495.875c3.809-1.011,7.488-3.292,11.512-3.099c3.529,1.14,6.219,3.83,8.887,6.283
		c8.865,14.697,19.022,28.985,32.772,39.572c3.637,2.668,7.402,5.143,11.318,7.445c-7.725-1.183-16.268-0.947-22.788-5.917
		c-11.06-8.392-17.688-21.023-27.5-30.642c-4.261-4.433-10.63-5.057-16.289-6.348C413.319,500.738,414.007,498.307,414.717,495.875z
		"/>
	<path class="st46" d="M692.472,498.005c2.044-1.27,4.132-2.496,6.219-3.744c4.304,7.122,9.21,13.901,13.061,21.303
		c0.194,8.973-1.42,17.839-3.12,26.618c-1.42-0.344-4.261-1.011-5.659-1.356c-0.043-3.873-0.065-7.768-0.172-11.641
		c-0.323-5.831-0.452-11.878-2.797-17.3c-2.345-5.423-8.37-7.424-13.147-10.07C688.685,500.501,690.579,499.253,692.472,498.005z"/>
	<path class="st47" d="M721.651,501.577c4.067,0.775,8.155,1.528,12.244,2.302c-0.065,4.885,0,9.791,0.108,14.675
		c-3.701-2.259-7.402-4.519-10.91-7.058c-1.334-0.99-3.981-2.969-5.315-3.981C719.069,505.537,720.36,503.557,721.651,501.577z"/>
	<path class="st48" d="M667.296,524.623c5.358-8.5,11.62-16.569,19.56-22.809c4.777,2.647,10.802,4.648,13.147,10.07
		c2.346,5.423,2.475,11.469,2.797,17.3c-3.529,4.067-6.929,8.241-10.716,12.072c-7.725,3.981-17.645,10.178-26.123,4.712
		C658.065,540.869,665.575,531.208,667.296,524.623z"/>
	<path class="st49" d="M723.092,511.497c3.507,2.539,7.209,4.799,10.91,7.058c-0.904,3.443-1.872,6.886-2.883,10.286
		c-3.787-1.313-7.574-2.625-11.383-3.873c-0.086,2.625-0.151,5.25-0.194,7.876c-0.968-2.195-1.807-4.411-2.711-6.606
		C719.929,521.804,722.06,516.791,723.092,511.497z"/>
	<path class="st50" d="M711.752,515.564l0.71,1.485c1.485,13.664,2.927,27.393,2.862,41.164c-5.681-3.099-11.276-6.305-16.806-9.619
		c-0.258,3.744-0.495,7.51-0.732,11.275c-0.882-6.477-3.077-12.674-5.702-18.613c3.787-3.83,7.187-8.005,10.716-12.072
		c0.108,3.873,0.129,7.768,0.172,11.641c1.399,0.344,4.239,1.011,5.659,1.356C710.332,533.402,711.946,524.537,711.752,515.564z"/>
	<path class="st51" d="M712.463,517.049c1.485,3.034,2.991,6.068,4.368,9.188c0.904,2.195,1.743,4.411,2.711,6.606
		c1.183,1.635,2.475,3.228,3.809,4.777c-6.348,23.756-7.682,49.599-21.647,70.665c4.885-16.569,12.502-32.621,13.621-50.072
		C715.389,544.441,713.947,530.713,712.463,517.049z"/>
	<path class="st52" d="M662.82,546.808c-7.833-6.434,0.861-15.88,4.476-22.185c-1.721,6.585-9.231,16.246-1.334,21.346
		c8.478,5.466,18.398-0.732,26.123-4.712c2.625,5.939,4.82,12.136,5.702,18.613c-0.646,11.082-2.302,22.056-4.626,32.901
		c-2.948,5.724-6.714,10.953-10.393,16.203c9.446-19.861,14.977-42.606,9.382-64.382
		C683.133,548.314,671.621,554.275,662.82,546.808z"/>
	<path class="st53" d="M719.736,524.967c3.809,1.248,7.596,2.561,11.383,3.873c-1.334,5.272-0.43,10.63,0.925,15.794
		c-2.926-2.302-5.874-4.583-8.693-7.015c-1.334-1.549-2.625-3.142-3.809-4.777C719.585,530.218,719.65,527.593,719.736,524.967z"/>
	<path class="st54" d="M723.351,537.62c2.819,2.432,5.767,4.712,8.693,7.015c-3.314,7.424-7.209,14.654-9.425,22.508
		c-2.647,9.382-2.152,19.431-5.767,28.555c-3.464,10.608-11.297,19.581-12.351,30.986c8.779,4.218,18.054,10.479,19.926,20.808
		c1.657,12.437-6.219,23.304-14.546,31.632c-9.49,11.491-20.894,22.874-36.129,25.8c-15.708,1.635-31.761,1.227-46.823-4.002
		c-10.996-6.025-16.612-17.752-20.722-29.028c-1.27-0.151-3.83-0.409-5.1-0.538c-3.013,8.22-5.552,16.633-7.187,25.262
		c-0.925-0.323-2.754-0.968-3.68-1.291c3.013-8.5,4.928-17.301,6.541-26.123c0.689-2.087,1.42-4.153,2.195-6.197
		c2.582-3.314,5.401-6.477,8.629-9.188c4.002,2.023,3.034,7.166,3.701,10.867c0.99,7.252-0.516,15.708,4.196,21.884
		c7.962,4.11,17.193,5.035,25.499,8.392c10.91,4.239,23.24,3.357,33.762-1.549c14.352-6.133,24.832-18.721,32.535-31.911
		c3.12-5.552,5.207-14.073-0.194-18.871c-11.189-7.058-25.52-7.488-35.978-15.945c-7.704-6.584-12.868-15.45-19-23.369
		c7.101,6.628,15.687,11.77,25.37,13.449c-0.043,0.904-0.151,2.711-0.194,3.615c4.433-0.043,8.93,0.172,13.341-0.646
		c4.562-2.819,7.94-7.144,11.06-11.448C715.669,587.219,717.003,561.376,723.351,537.62z"/>
	<path class="st55" d="M97.434,546.098c6.176,6.047,12.265,12.803,20.356,16.268c13.47,0.602,26.381-5.487,39.916-5.078
		c14.697-0.538,28.834,6.412,39.4,16.268c4.906,4.454,8.865,12.524,4.002,18.441c-7.424,8.693-19.711,11.835-30.749,10.415
		c-21.497-2.819-40.26-14.654-57.346-27.285c-2.281,1.808-4.562,3.615-6.864,5.444c-1.183-2.69-2.345-5.358-3.529-8.048
		c2.345-4.239,1.291-8.801-0.559-12.975C100.511,555.071,99.091,550.531,97.434,546.098 M128.721,566.454
		c-0.538,1.571-1.614,4.669-2.13,6.219c8.779,8.048,19.969,12.803,31.158,16.44c11.899,3.185,26.553,5.853,36.193-3.959
		c-5.724-10.479-17.666-15.385-28.662-18.204C153.101,566.454,140.879,567.681,128.721,566.454z"/>
	<path class="st56" d="M698.519,548.594c5.53,3.314,11.125,6.52,16.806,9.619c-1.119,17.451-8.736,33.504-13.621,50.072
		c-5.896-3.056-8.069-9.253-8.543-15.514c2.324-10.845,3.981-21.819,4.626-32.901C698.024,556.104,698.261,552.338,698.519,548.594z
		"/>
	<path class="st57" d="M128.721,566.454c12.158,1.227,24.38,0,36.559,0.495c10.996,2.819,22.938,7.725,28.662,18.204
		c-9.64,9.812-24.294,7.144-36.193,3.959c-11.189-3.636-22.379-8.392-31.158-16.44C127.107,571.124,128.183,568.025,128.721,566.454
		z"/>
	<path class="st58" d="M660.97,568.219c4.433,1.14,12.007-1.635,13.384,4.39c0.925,3.185-0.151,6.52-0.344,9.769
		c-4.261-0.022-8.5-0.022-12.717-0.022C660.518,577.665,660.41,572.91,660.97,568.219z"/>
	<path class="st59" d="M682.768,608.974c3.68-5.25,7.445-10.479,10.393-16.203c0.473,6.262,2.647,12.459,8.543,15.514
		c-3.12,4.304-6.498,8.629-11.06,11.448c-4.411,0.818-8.909,0.602-13.341,0.646c0.043-0.904,0.151-2.711,0.194-3.615
		C679.239,614.16,681.025,611.577,682.768,608.974z"/>
	<path class="st60" d="M598.976,663.006c1.872-6.886,6.369-12.437,12.244-16.354c0.947,5.229,1.764,10.458,2.905,15.644
		c2.195,12.631,11.813,23.067,23.024,28.619c12.093,3.83,25.112,2.302,37.614,2.496c-10.522,4.906-22.852,5.788-33.762,1.549
		c-8.306-3.357-17.537-4.282-25.499-8.392c-4.712-6.176-3.206-14.632-4.196-21.884c-0.667-3.701,0.301-8.844-3.701-10.867
		C604.377,656.529,601.558,659.692,598.976,663.006z"/>
	<path class="st61" d="M643.863,649.837c8.371,1.786,16.461,4.734,24.036,8.736c-3.873,4.992-9.705,10.974-16.59,7.553
		C644.465,663.673,643.755,656.055,643.863,649.837z"/>
	<path class="st62" d="M150.131,662.618c6.606,0.71,14.31,0.194,19.409,5.294c8.026,7.725,15.299,16.225,23.003,24.294
		c14.632,15.601,21.862,37.334,20.894,58.572c-0.538,12.696-8.736,23.541-18.161,31.352c-6.778,5.81-15.966,6.886-23.756,10.737
		c-3.723,2.668-6.348,6.542-9.877,9.468c-2.905,1.076-6.068,0.839-9.102,1.033c1.205-1.183,3.594-3.507,4.799-4.691
		c-5.487-4.174-11.275-8.048-17.645-10.716c13.212-3.572,26.898-4.949,40.067-8.672c12.459-4.734,23.132-16.677,23.605-30.448
		c1.549-17.322-4.325-34.73-14.589-48.588c-8.521-10.996-20.7-18.118-31.395-26.725C153.725,670.86,152.025,666.556,150.131,662.618
		z"/>
	<path class="st63" d="M583.634,707.806c0.108-14.03,7.488-26.274,13.148-38.603c-1.614,8.822-3.529,17.623-6.541,26.123
		c0.925,0.323,2.754,0.968,3.68,1.291c0.043,8.952-0.366,17.925,0.452,26.876c0.366,0.775,1.076,2.345,1.442,3.12
		c1.958,4.088,4.002,8.134,6.025,12.201c-8.155,7.682-19.431,6.283-29.673,5.53c7.768-1.937,15.45-4.218,23.239-6.068
		C589.487,729.109,582.623,719.275,583.634,707.806z"/>
	<path class="st64" d="M601.107,671.355c1.27,0.129,3.83,0.387,5.1,0.538c4.11,11.276,9.726,23.003,20.722,29.028
		c-9.231,7.919-15.041,18.592-18.376,30.19c-4.304-1.356-8.607-2.711-12.739-4.497c-0.366-0.775-1.076-2.345-1.442-3.12
		c3.056-0.323,6.133-0.667,9.21-0.99c1.463-9.726-0.323-20.657-9.662-25.886C595.555,687.988,598.094,679.575,601.107,671.355z"/>
	<path class="st65" d="M593.92,696.617c9.339,5.229,11.125,16.16,9.662,25.886c-3.077,0.323-6.154,0.667-9.21,0.99
		C593.554,714.541,593.963,705.568,593.92,696.617z"/>
	<path class="st66" d="M365.635,706.042c19.237,1.614,35.612,12.975,54.075,17.602c23.627,6.111,47.038,13.363,71.225,17.128
		c26.704,5.293,54.161,4.949,81.231,3.572c10.242,0.753,21.518,2.152,29.673-5.53c-2.023-4.067-4.067-8.112-6.025-12.201
		c4.131,1.786,8.435,3.142,12.739,4.497c2.582,6.133,12.61,12.287,7.381,19.302c-28.296,9.619-58.852,6.111-88.31,6.563
		c-10.307,0.344-19.99-3.852-30.211-4.497c-19.452-2.367-38.13-9.941-57.84-10.07c-2.754,14.589-1.313,29.587,1.356,44.091
		c3.744,17.881,0.775,36.322,3.378,54.312c0.43,5.057,5.229,8.435,10.157,7.144c17.042-3.507,31.718-13.599,47.835-19.711
		c15.084-6.606,31.137-10.479,46.952-14.891c19.603-5.659,40.26-3.981,60.38-3.615c18.054,3.013,35.591,8.693,52.827,14.826
		c6.176,1.937,10.953,6.455,16.461,9.662c3.594,1.076,6.412-2.367,9.339-3.895c-0.108,4.088,0.732,8.177,2.518,11.878l1.119,0.71
		c-6.068-0.172-12.029,0.947-17.882,2.345c-21.045-14.008-46.178-20.012-71.031-22.594c-33.848-3.077-68.212,3.959-98.918,18.204
		c-23.412,9.963-46.479,22.702-72.516,23.756c-0.28-22.185-1.463-44.327-2.625-66.469c-0.904-13.729-5.874-26.898-5.724-40.734
		c-0.452-7.424,0.646-15.235-2.109-22.293C402.71,725.559,379.966,722.331,365.635,706.042z"/>
	<path class="st67" d="M857.322,719.813c17.473-4.222,36.1-3.691,53.964-4.187c19.371-0.538,38.763-0.087,58.102,1.11
		c12.179,1.829,24.767,0.99,36.602,4.906c39.787,8.93,78.433,25.736,109.312,52.762c37.183,28.382,68.083,68.664,75.292,115.853
		c0.301,11.77,0.301,23.562,0.215,35.333c-2.991,23.885-13.664,47.06-30.018,64.726c-2.882,3.613-5.226,7.57-7.506,11.57
		c0.379-0.666,7.401-0.674,8.444-0.793c3.027-0.345,6.048-0.746,9.07-1.137c6.256-0.81,11.726-1.787,18.05-1.263
		c38.982,3.229,78.802,10.979,109.339,37.095c5.994,5.126,11.355,10.885,16.672,16.694c9.721,11.406,17.067,24.605,23.164,38.239
		c2.844,6.359,6.55,13.353,7.846,20.162c1.524,8.008,3.279,15.96,4.87,23.963c3.474,17.478,2.551,35.796-2.553,52.863
		c-6.185,20.681-14.02,38.86-26.606,56.453c-1.105,1.544-2.215,3.085-3.32,4.628c-14.503,16.418-30.362,32.234-49.75,42.842
		c-10.824,5.745-21.045,12.911-32.815,16.633c-10.735,3.395-19.939,8.483-31.501,9.005c-1.721,0.078-3.468,0.085-5.125,0.557
		s-3.25,1.493-3.959,3.063c-0.821,1.819-0.284,4.02,0.855,5.658c1.586,2.283,3.999,3.898,5.744,6.094
		c2.106,2.651,4.368,5.184,6.485,7.83c4.233,5.291,8.274,10.744,11.941,16.445c19.331,30.053,26.601,74.726,8.28,106.796
		c-4.414,7.727-9.999,14.771-16.39,20.957c-10.114,8.908-22.723,14.245-35.204,18.914c-9.834,4.11-21.002,1.592-30.792,5.918
		c-0.61,9.662,1.09,19.283,0.206,28.997c-0.97,10.653-4.764,18.961-12.742,25.945c-7.918,6.931-18.194,11.144-28.735,11.462
		c-16.268,0.215-32.535-0.43-48.803,0.108c-0.126,0.004,3.111,6.113,3.569,6.671c1.863,2.269,4.122,3.216,6.685,4.545
		c5.754,2.983,11.688,5.621,17.751,7.909c19.077,7.197,40.386,11.395,60.769,8.346c9.054-1.354,17.445-3.352,25.878-7.078
		c8.596-3.798,16.818-8.411,25.551-11.906c1.733-0.694,3.484-1.345,5.256-1.934c-5.596,18.071-20.478,32.115-33.285,45.369
		c-11.483,11.884-27.219,21.73-43.264,25.739c-10.051,2.511-20.405,3.499-30.743,3.718c-26.919,0.572-53.588-5.786-77.286-18.504
		c-19.732-10.974-38.776-23.864-53.709-40.992c-10.867-11.232-18.85-26.489-18.721-42.347c1.872-15.278,9.941-33.332,26.338-37.119
		c3.916-1.076,7.854-2.066,11.792-3.056c0.151-2.604,0.301-5.186,0.473-7.725c-2.367-0.301-4.712-0.581-7.058-0.861
		c-13.664-2.001-25.65-9.597-38.388-14.503c-34.171-17.021-66.663-38.56-92.893-66.491c-11.598-12.007-20.184-26.359-30.964-38.991
		c-1.571-3.185-2.862-6.498-3.68-9.941c-1.807-8.37-1.033-16.999,1.313-25.176c5.509,8.543,9.081,18.075,13.836,27.027
		c16.074,28.727,41.293,50.697,65.781,72.064c8.693,6.412,18.506,11.017,27.844,16.397c13.793,7.66,27.608,15.428,42.391,21.088
		c14.288,5.487,27.78,13.061,42.627,17.064c9.253,2.496,18.419,5.509,26.833,10.178c-12.717,5.229-27.027,1.011-39.679,6.283
		c-13.04,5.229-25.305,14.89-29.609,28.748c-3.637,10.436-0.301,21.819,5.057,31.051c6.821,12.222,18.419,20.593,29.243,29.028
		c13.47,10.479,28.92,17.989,44.628,24.509c19.388,8.414,41.014,9.898,61.907,9.145c18.441-0.71,35.548-8.736,50.761-18.635
		c5.121-3.421,9.016-8.285,12.868-13.018c-15.17-0.925-30.082,4.842-45.209,1.786c-23.971-4.411-49.427-9.662-68.363-26.08
		c-5.552-4.648-11.146-11.168-9.791-18.936c4.39-6.025,12.201-3.314,18.29-2.475c18.527,3.981,38.216-0.022,54.914-8.564
		c11.9-6.498,21.152-18.936,20.959-32.88c0.021-6.348-1.334-15.45-9.038-16.547c-13.944-3.206-28.683-3.744-41.81-10.006
		c-19.13-9.167-38.991-18.721-53.021-35.182c-9.059-10.587-18.161-22.702-19.667-36.946c0.796-13.427,13.298-27.22,27.543-25.219
		c18.097,0.925,34.106,10.544,48.351,21.001c16.225,11.684,28.382,27.974,39.27,44.499c6.477,9.64,8.5,21.367,14.31,31.33
		c5.401,1.807,11.06-0.732,16.268-2.173c15.407-5.53,31.33-11.921,42.778-24.079c12.072-13.406,22.034-29.845,22.96-48.286
		c3.271-24.401-5.229-48.738-18.57-68.879c-8.048-13.599-20.485-23.691-29.867-36.258c13.449-11.06,31.61-11.62,46.974-18.678
		c21.884-9.898,43.811-20.958,61.197-37.872c10.888-10.716,20.55-22.637,29.889-34.73c6.219-8.241,12.351-16.827,15.665-26.704
		c5.035-15.342,9.317-31.244,8.93-47.512c0.129-17.925-5.078-35.268-10.113-52.267c-4.024-13.793-12.502-25.585-21.088-36.86
		c-8.995-11.706-19.56-22.465-32.277-30.061c-37.484-20.894-81.575-25.348-123.75-22.723c-8.328,0.818-16.332,3.464-24.358,5.681
		c6.886-11.534,16.999-20.528,24.81-31.352c18.097-24.036,27.844-54.398,26.295-84.48c-3.142-28.856-14.051-57.238-32.514-79.789
		c-9.296-12.115-19.818-23.326-31.782-32.858c-18.226-14.525-36.946-29.006-58.594-38.087
		c-31.158-12.803-64.511-19.409-97.929-22.508c-18.054-1.011-36.15-0.667-54.182-0.022c-19.022,0.861-37.57,5.53-56.227,8.951
		c-15.708,2.754-30.34,9.317-45.08,15.127c-16.698,6.606-31.89,16.311-46.759,26.231c-21.432,14.073-38.776,33.611-52.719,54.936
		c-2.668,4.411-7.23,6.95-11.749,9.059c-1.786-3.701-2.625-7.79-2.518-11.878c7.101-12.072,15.988-23.089,25.628-33.224
		c17.15-17.473,35.333-34.493,57.26-45.876c10.179-5.284,20.275-10.759,30.864-15.198c7.326-3.071,15.451-5,23.277-6.995
		c7.943-2.025,15.932-5.95,24.034-6.988C852.581,721.63,854.641,721.977,857.322,719.813 M1044.486,1410.586
		c-9.726-0.839-19.366,6.692-21.152,16.182c1.872,12.545,8.951,23.993,17.731,32.966c20.894,22.68,51.385,33.611,81.015,39.141
		c5.767,1.592,13.513-2.367,9.403-8.995c-14.374-31.997-39.529-60.143-71.913-74.517
		C1054.729,1413.254,1049.779,1411.081,1044.486,1410.586z"/>
	<path class="st1" d="M847.079,736.856c18.656-3.421,37.205-8.091,56.227-8.951c18.032-0.646,36.129-0.99,54.182,0.022
		c33.418,3.099,66.771,9.705,97.929,22.508c21.647,9.081,40.368,23.562,58.594,38.087c11.964,9.533,22.486,20.743,31.782,32.858
		c18.463,22.551,29.372,50.933,32.514,79.789c1.549,30.082-8.198,60.444-26.295,84.48c-7.811,10.824-17.925,19.818-24.81,31.352
		c8.026-2.216,16.031-4.863,24.358-5.681c42.175-2.625,86.266,1.829,123.75,22.723c12.717,7.596,23.282,18.355,32.277,30.061
		c8.586,11.276,17.064,23.067,21.088,36.86c5.035,16.999,10.243,34.343,10.113,52.267c0.387,16.268-3.895,32.169-8.93,47.512
		c-3.314,9.877-9.446,18.463-15.665,26.704c-9.339,12.093-19,24.014-29.889,34.73c-17.387,16.913-39.313,27.974-61.197,37.872
		c-15.364,7.058-33.525,7.618-46.974,18.678c9.382,12.566,21.819,22.658,29.867,36.258c13.341,20.141,21.841,44.478,18.57,68.879
		c-0.925,18.441-10.888,34.881-22.96,48.286c-11.448,12.158-27.371,18.549-42.778,24.079c-5.207,1.442-10.867,3.981-16.268,2.173
		c-5.81-9.963-7.833-21.69-14.31-31.33c-10.888-16.526-23.046-32.815-39.27-44.499c-14.245-10.458-30.254-20.076-48.351-21.001
		c-14.245-2.001-26.747,11.792-27.543,25.219c1.506,14.245,10.608,26.359,19.667,36.946c14.03,16.461,33.891,26.015,53.021,35.182
		c13.126,6.262,27.866,6.8,41.81,10.006c7.703,1.097,9.059,10.2,9.038,16.547c0.194,13.944-9.059,26.381-20.959,32.88
		c-16.698,8.543-36.387,12.545-54.914,8.564c-6.09-0.839-13.901-3.55-18.29,2.475c-1.356,7.768,4.239,14.288,9.791,18.936
		c18.936,16.418,44.392,21.669,68.363,26.08c15.127,3.056,30.039-2.711,45.209-1.786c-3.852,4.734-7.746,9.597-12.868,13.018
		c-15.213,9.898-32.32,17.924-50.761,18.635c-20.894,0.753-42.52-0.732-61.907-9.145c-15.708-6.52-31.158-14.03-44.628-24.509
		c-10.824-8.435-22.422-16.806-29.243-29.028c-5.358-9.231-8.693-20.614-5.057-31.051c4.304-13.858,16.569-23.519,29.609-28.748
		c12.653-5.272,26.962-1.054,39.679-6.283c-8.414-4.669-17.58-7.682-26.833-10.178c-14.847-4.002-28.339-11.577-42.627-17.064
		c-14.783-5.659-28.597-13.427-42.391-21.088c-0.151-2.281-0.28-4.54-0.387-6.8c8.995-2.668,18.161-5.487,26.015-10.823
		c11.856-8.005,24.143-17.042,29.759-30.728c13.234-25.456,13.922-56.958,1.248-82.758c-3.099-8.586-10.393-15.278-12.179-24.316
		c29.673,1.463,59.347,9.834,89.063,4.562c14.826-2.066,30.233-1.463,44.413-6.95c15.708-6.025,32.363-10.544,46.005-20.808
		c19.022-12.265,33.611-30.039,46.35-48.459c12.265-21.088,17.214-46.307,15.084-70.536c-2.453-14.933-8.822-29.006-15.794-42.347
		c-9.489-14.482-22.702-26.058-35.569-37.463c-15.794-14.051-35.655-22.4-55.861-27.844c-19-4.605-38.56-6.111-57.905-8.521
		c3.959-4.626,8.112-9.124,12.825-12.997c15.837-12.868,30.771-27.694,39.895-46.178c6.434-12.997,13.234-26.295,14.697-40.927
		c3.443-32.492-5.767-65.63-23.476-92.893c-13.901-21.26-29.458-42.175-50.029-57.453c-16.289-10.931-33.697-20.378-52.009-27.5
		c-51.923-16.504-109.355-19.216-161.342-1.463c-19.624,8.758-40.755,14.761-58.314,27.565
		c-16.956,11.405-32.406,24.81-47.878,38.087c-3.981,3.314-6.477,7.94-8.844,12.437c-3.852-3.529-8.198-6.477-12.674-9.145
		l-1.119-0.71c4.519-2.109,9.081-4.648,11.749-9.059c13.944-21.324,31.287-40.863,52.719-54.936
		c14.869-9.92,30.061-19.624,46.759-26.231C816.739,746.173,831.371,739.61,847.079,736.856z"/>
	<path class="st68" d="M819.601,773.974c51.988-17.752,109.419-15.041,161.342,1.463c18.312,7.122,35.72,16.569,52.009,27.5
		c20.571,15.278,36.129,36.193,50.029,57.453c17.709,27.263,26.919,60.401,23.476,92.893c-1.463,14.632-8.263,27.93-14.697,40.927
		c-9.124,18.484-24.057,33.31-39.895,46.178c-4.713,3.873-8.865,8.37-12.825,12.997c19.345,2.41,38.905,3.916,57.905,8.521
		c20.205,5.444,40.067,13.793,55.861,27.844c12.868,11.405,26.08,22.981,35.569,37.463c6.972,13.341,13.341,27.414,15.794,42.347
		c2.13,24.229-2.819,49.448-15.084,70.536c-12.739,18.419-27.328,36.193-46.35,48.459c-13.642,10.264-30.297,14.783-46.005,20.808
		c-14.181,5.487-29.587,4.885-44.413,6.95c-29.716,5.272-59.39-3.099-89.063-4.562c1.786,9.038,9.081,15.73,12.179,24.316
		c12.674,25.8,11.986,57.303-1.248,82.758c-5.616,13.686-17.903,22.723-29.759,30.728c-7.854,5.336-17.021,8.155-26.015,10.823
		c0.108,2.26,0.237,4.519,0.387,6.8c-9.339-5.38-19.151-9.984-27.844-16.397c14.697,7.445,30.878,0.021,44.478-6.262
		c31.933-15.773,47.512-56.506,36.796-89.989c-4.153-13.298-8.629-27.349-18.893-37.291c-5.681-5.573-11.017-11.491-15.45-18.075
		c16.44-0.796,32.169,5.057,48.437,6.262c17.817,1.485,35.655,3.701,53.558,2.625c18.871-1.356,38.044-2.109,56.162-8.048
		c35.569-9.533,66.749-33.353,86.072-64.576c6.326-11.362,9.188-24.229,12.609-36.688c5.466-20.7-1.549-42.154-10.673-60.724
		c-16.332-29.609-43.918-52.827-75.851-63.952c-18.183-7.617-38.152-7.962-57.496-9.834c-14.589-1.463-29.006,2.173-43.552,2.13
		c3.034-10.243,14.331-12.889,22.056-18.57c25.477-17.86,48.997-40.454,61.133-69.675c6.133-15.966,9.898-33.396,7.316-50.524
		c-2.087-13.492-4.39-27.134-9.791-39.744c-13.277-29.114-32.32-55.904-57.152-76.26c-10.759-8.543-23.24-14.417-35.311-20.765
		c-20.7-11.146-44.456-13.341-66.964-18.721c-44.435-5.896-90.29,2.173-131.023,20.614c-21.862,8.672-41.487,22.099-59.325,37.269
		c-10.006,8.457-18.269,18.807-28.727,26.79c-1.183-1.183-3.594-3.529-4.799-4.712c2.367-4.497,4.863-9.124,8.844-12.437
		c15.471-13.277,30.921-26.682,47.878-38.087C778.846,788.736,799.976,782.732,819.601,773.974z"/>
	<path class="st69" d="M797.416,792.716c40.734-18.441,86.589-26.51,131.023-20.614c22.508,5.38,46.264,7.574,66.964,18.721
		c12.072,6.348,24.552,12.222,35.311,20.765c24.832,20.356,43.875,47.146,57.152,76.26c5.401,12.61,7.703,26.252,9.791,39.744
		c2.582,17.128-1.183,34.558-7.316,50.524c-12.136,29.222-35.655,51.815-61.133,69.675c-7.725,5.681-19.022,8.328-22.056,18.57
		c14.546,0.043,28.963-3.594,43.552-2.13c19.345,1.872,39.314,2.216,57.496,9.834c31.933,11.125,59.519,34.343,75.851,63.952
		c9.124,18.57,16.139,40.024,10.673,60.724c-3.421,12.459-6.283,25.327-12.609,36.688c-19.323,31.223-50.503,55.043-86.072,64.576
		c-18.118,5.939-37.291,6.692-56.162,8.048c-17.903,1.076-35.742-1.141-53.558-2.625c-16.268-1.205-31.997-7.058-48.437-6.262
		c4.433,6.585,9.769,12.502,15.45,18.075c10.264,9.941,14.74,23.993,18.893,37.291c10.716,33.482-4.863,74.216-36.796,89.989
		c-13.599,6.283-29.781,13.707-44.478,6.262c-24.488-21.367-49.707-43.337-65.781-72.064c-4.755-8.952-8.327-18.484-13.836-27.027
		c-2.345,8.177-3.12,16.806-1.313,25.176c-4.798-20.27-2.475-41.444-7.531-61.692c-5.552-21.432-6.993-43.854-15.278-64.554
		c2.389,2.238,3.916,7.919,7.983,6.628c1.829-10.221,0.947-21.152,5.638-30.706c4.39-8.995,9.726-17.516,15.235-25.843
		c9.468-14.309,23.971-24.122,38.474-32.75c5.487-3.142,10.996-6.606,17.258-7.919c5.896,2.023,10.458,6.52,15.149,10.436
		c15.601,13.685,31.933,27.177,51.407,34.967c20.657,8.284,41.81,17.257,64.447,17.559c18.097,0.323,38.216,1.313,53.408-10.286
		c11.362-7.273,17.925-22.228,13.47-35.29c-4.454-13.04-15.794-21.905-26.769-29.372c-8.65-5.982-18.505-9.877-28.619-12.502
		c-18.463-4.777-36.968-10.587-56.205-10.608c-20.722-0.818-41.315,3.637-60.681,10.802c-7.682,2.797-14.869,7.187-22.96,8.779
		c-9.188-3.809-14.977-12.502-21.798-19.323c-23.67-25.026-42.627-55.086-51.299-88.633c-7.531-33.159,3.529-68.707,25.65-93.969
		c9.167-9.49,18.57-18.785,28.77-27.177c14.137-11.426,31.438-17.645,47.404-25.972c8.091-4.411,18.635-5.961,23.562-14.568
		c-34.709-12.265-71.87-18.247-108.666-14.955c-26.747,1.14-52.267,9.963-77.594,17.881c-5.336,1.119-5.81,7.036-7.488,11.254
		l-0.495,1.42c-3.787-13.513-13.772-23.756-23.132-33.697c10.458-7.983,18.721-18.333,28.727-26.79
		C755.929,814.815,775.553,801.388,797.416,792.716z"/>
	<path class="st70" d="M192.264,847.953c14.589,0.925,28.834-2.926,42.842-6.391c-9.145,4.411-18.979,7.122-28.856,9.317
		c-0.516,1.528-1.571,4.583-2.109,6.111c9.554,5.035,20.356,4.433,30.792,4.218c2.969,0.452,5.961,0.99,8.93,1.592
		c-2.84,4.282-6.004,8.457-10.243,11.469c1.42-2.991,2.69-6.025,3.981-9.038c-18.764,0.861-36.667-4.928-54.806-8.564
		c4.239-0.409,8.478-0.99,12.717-1.549C194.437,852.709,193.34,850.32,192.264,847.953z"/>
	<path class="st71" d="M674.01,845.263c5.853-1.399,11.813-2.518,17.882-2.345c4.476,2.668,8.822,5.616,12.674,9.145
		c1.205,1.183,3.615,3.529,4.799,4.712c9.36,9.941,19.345,20.184,23.132,33.697c-1.592,4.39-3.486,8.672-5.423,12.932
		c-8.22-12.61-16.978-25.219-28.684-34.902C689.653,861.424,682.101,853.053,674.01,845.263z"/>
	<path class="st72" d="M171.736,848.125c6.821-0.43,13.685-0.452,20.528-0.172c1.076,2.367,2.173,4.755,3.249,7.166
		c-4.239,0.559-8.478,1.141-12.717,1.549C177.416,856.582,174.382,852.128,171.736,848.125z"/>
	<path class="st73" d="M818.073,859.917c36.796-3.292,73.958,2.69,108.666,14.955c-4.928,8.607-15.471,10.156-23.562,14.568
		c-15.966,8.327-33.267,14.546-47.404,25.972c-10.2,8.392-19.603,17.688-28.77,27.177c-22.121,25.262-33.181,60.81-25.65,93.969
		c8.672,33.547,27.629,63.607,51.299,88.633c6.821,6.821,12.61,15.514,21.798,19.323c8.091-1.592,15.278-5.982,22.96-8.779
		c19.366-7.165,39.959-11.62,60.681-10.802c19.237,0.021,37.743,5.831,56.205,10.608c10.113,2.625,19.969,6.52,28.619,12.502
		c10.974,7.467,22.314,16.332,26.769,29.372c4.454,13.062-2.109,28.017-13.47,35.29c-15.192,11.598-35.311,10.608-53.408,10.286
		c-22.637-0.301-43.789-9.274-64.447-17.559c-19.474-7.79-35.806-21.281-51.407-34.967c-4.691-3.916-9.253-8.414-15.149-10.436
		c-6.262,1.313-11.77,4.777-17.258,7.919c-14.503,8.629-29.006,18.441-38.474,32.75c-5.509,8.328-10.845,16.849-15.235,25.843
		c-4.691,9.554-3.809,20.485-5.638,30.706c-4.067,1.291-5.595-4.39-7.983-6.628c-3.916-9.188-4.347-19.667-0.043-28.813
		c5.186-12.072,11.921-23.777,21.238-33.159c15.816-13.75,33.439-25.241,51.514-35.763c3.83-1.313,2.41-6.068-0.495-7.467
		c-26.187-25.047-49.986-53.429-64.619-86.89c-3.833-8.764-6.032-18.135-8.133-27.433c-1.035-4.578-2.578-9.291-3.231-13.93
		c-0.635-4.513,0.329-9.467,0.799-14.003c0.441-4.257,1.972-8.626,2.743-12.859c1.784-9.789,4.392-19.485,8.379-28.62
		c4.138-9.481,10.059-17.262,16.469-25.278c8.009-10.015,16.897-19.487,27.559-26.718c13.406-9.091,28.015-20.693,44.327-23.627
		c3.077-0.732,6.219-1.356,9.167-2.561c0.87-1.499,2.864-5.351,2.526-7.118c-0.434-2.267-3.914-1.62-6.351-1.807
		c-5.792-0.446-11.585-0.892-17.377-1.338c-11.626,0-24.098-3.871-35.598-2.29c-11.7,1.608-23.299,4.048-34.99,5.83
		c-12.704,1.936-25.4,5.199-37.754,8.686c-7.037,1.987-13.839,4.739-20.458,7.828c-3.314-1.42-6.606-2.84-9.898-4.239
		c1.678-4.218,2.152-10.135,7.488-11.254C765.806,869.88,791.326,861.058,818.073,859.917 M914.99,1140.513
		c-11.426,3.981-23.971,6.541-33.331,14.675c8.995,8.779,19.259,16.074,28.877,24.143c11.534,9.468,25.649,14.848,39.098,21.023
		c13.75,6.348,28.662,9.339,43.359,12.588c17.58,4.089,36.645,1.765,52.805-6.219c11.318-5.573,20.313-21.174,12.05-32.772
		c-8.822-12.523-22.766-21.045-37.42-25.09c-16.461-4.54-32.363-11.534-49.513-13.212
		C952.152,1132.508,933.345,1136.962,914.99,1140.513z"/>
	<path class="st74" d="M181.419,898.499c8.779-1.592,17.473-3.959,25.606-7.66c-4.949,3.378-9.188,8.328-8.414,14.761
		c0.237,25.047-0.366,50.718,7.187,74.883c6.498,18.054,13.664,36.236,25.714,51.407c14.245,20.141,33.955,35.419,53.795,49.664
		c2.733,1.657,7.746,4.734,9.167,0.043c6.563-14.848,4.11-32.729,14.223-46.328c5.509,10.35,1.657,21.991,0.409,32.858
		c-3.228,19.754-1.851,39.851-4.54,59.648c-7.94,83.21-20.722,166.464-46.802,246.059c-5.487,21.217-14.74,41.142-22.357,61.628
		c-11.039,31.266-32.406,57.367-46.35,87.234c-4.002,6.864-1.42,15.751,5.616,19.431c12.072,6.154,26.101,5.81,39.098,8.801
		c30.792,6.864,62.123,12.416,93.797,11.964c16.031-0.301,34.364,1.7,47.706-9.124c14.847-12.201,18.527-32.062,23.498-49.578
		c5.466-24.057,9.705-48.416,13.126-72.839c8.607-44.822,11.792-90.526,12.373-136.08c0.387-17.752,1.42-35.526-0.194-53.236
		c-2.173-24.746-0.215-49.793-4.734-74.345c-3.443-25.542-6.305-51.148-10.781-76.54c-2.754-18.312-10.372-35.526-12.244-54.01
		c1.506,0.194,4.497,0.559,5.982,0.753c7.51,19.13,13.836,38.776,18.893,58.701c2.539,9.425,3.507,19.474,8.198,28.167
		c6.498,2.862,13.858,2.152,20.786,2.324c25.069-0.882,50.589,2.238,75.163-4.153c16.806-4.368,34.859-6.993,49.276-17.344
		c12.846-9.21,25.026-19.624,34.493-32.363c9.167-11.921,14.632-26.08,20.399-39.83c4.842-11.448,6.154-23.885,8.844-35.914
		c3.357,4.519,6.24,9.748,5.078,15.622c-3.249,29.953-16.913,58.701-37.764,80.456c-4.11,4.519-8.629,8.801-11.749,14.116
		c-2.561,3.852-0.387,8.521,0.516,12.566c-2.561-0.71-5.121-1.399-7.682-2.066c-1.162,1.549-2.324,3.12-3.464,4.691
		c-4.239,0.258-9.834-1.98-12.782,2.152c-1.764,1.872-3.292,3.959-4.842,6.025c-3.4-1.227-6.8-2.453-10.178-3.658
		c0.775,10.781,3.959,21.131,7.79,31.18c4.82,12.932,6.369,26.725,7.165,40.411c-6.24-18.871-8.435-38.883-15.902-57.367
		c-1.485-3.486-3.099-7.122-6.09-9.554c-12.545-0.215-24.552,4.605-37.097,4.949c-24.574,1.033-49.147,2.066-73.764,2.173
		c1.614,14.826,7.058,29.114,6.671,44.177c-0.215,20.722,0.861,41.637-3.056,62.101c-2.066,10.716-3.572,21.583-3.378,32.535
		c0.194,26.725-0.301,53.537-4.304,80.026c-2.066,26.725-5.1,53.322-8.177,79.94c-1.313,7.833-3.314,15.536-5.014,23.304
		c5.853,1.765,11.684,3.658,17.516,5.53c-5.788,0.301-11.555,1.011-17.301,1.743c1.528,1.958,3.056,3.938,4.583,5.917
		c-1.184,1.442-2.367,2.862-3.507,4.347c-12.201,15.88-8.198,37.893-15.988,55.667c-4.885,10.415-9.274,21.798-18.807,28.942
		c-11.362,8.564-25.843,12.287-39.959,12.072c-22.895,0-46.178,1.334-68.6-4.11c-17.494-1.42-34.644-5.272-51.794-8.844
		c-10.544-2.238-22.207,0.904-31.868-4.928c-8.005-4.583-18.118-9.231-20.378-19.087c-1.248-8.564-2.087-18.226,3.034-25.714
		c7.359-10.996,12.459-23.261,19.452-34.45c9.274-14.783,18.678-29.652,24.896-46.006c3.421-8.823,6.369-17.881,10.953-26.187
		c3.206-6.563,3.55-13.922,3.938-21.066c3.206-3.228,6.606-6.563,7.854-11.082c7.101-22.788,13.621-45.769,19.56-68.901
		c3.594-13.987,5.186-28.425,9.425-42.24c5.014-16.139,6.714-33.052,7.94-49.814c1.334-6.305-5.573-8.865-9.21-12.524
		c1.377-0.237,4.131-0.71,5.509-0.925c-1.377-4.131-2.69-8.284-4.39-12.265c3.443,0.043,6.907,0.108,10.35,0.172
		c1.27-14.288,2.152-28.641,4.497-42.778c1.399-8.263,1.829-16.676,0.603-24.982c-1.657-0.516-3.292-1.033-4.928-1.528
		c2.087-6.864,3.981-13.793,5.702-20.743c-4.454,4.992-8.887,10.049-13.234,15.149c2.776-6.412,9.081-15.966,2.001-21.712
		c-15.278-12.674-33.568-22.228-45.855-38.238c-5.595-7.424-11.125-14.891-17.15-21.991c-6.068,5.293-12.351,10.329-18.635,15.407
		c4.863-5.336,8.801-11.361,12.825-17.322c-1.851-1.85-3.68-3.701-5.509-5.552c-0.043-14.912-8.327-27.844-11.878-41.982
		c-6.326-24.595-7.919-50.352-5.81-75.593C186.346,902.48,183.076,900.716,181.419,898.499z"/>
	<path class="st75" d="M732.496,890.473l0.495-1.42c3.292,1.399,6.584,2.819,9.898,4.239c-0.775,0.452-2.324,1.334-3.12,1.764
		c-4.239,1.657-0.99,6.541,2.001,7.553c6.477,13.75,11.103,28.339,14.224,43.187c3.507,22.357,3.615,45.037,2.905,67.61
		c-0.753,15.514-6.412,30.168-9.662,45.252c-2.905,14.546-10.737,27.414-14.46,41.702c-4.153,14.761-11.749,28.425-14.331,43.617
		c-1.14,3.938,1.399,7.381,3.421,10.522c1.506,2.668,3.787,3.4,6.778,2.238c6.8,1.205,14.116,1.98,19.861,6.176
		c5.767,4.777,8.543,12.007,11.598,18.635c4.411,10.522,9.124,20.937,13.018,31.653c-0.366,5.788-1.033,11.555-1.592,17.344
		c-2.518-1.205-5.035-2.389-7.531-3.55c-4.002-13.987-9.597-27.457-15.278-40.798c-2.453-4.928-4.669-10.716-9.855-13.363
		c-6.262-3.206-12.997-5.358-19.668-7.51c-4.411-1.313-8.908-2.345-13.384-3.335c-0.882-3.12-1.764-6.24-2.518-9.36
		c13.621-49.169,40.54-95.691,40.626-147.872c0.473-17.365-0.646-34.773-4.562-51.729c-3.68-16.784-4.325-34.924-14.288-49.621
		C729.01,899.145,730.904,894.863,732.496,890.473z"/>
	<path class="st76" d="M1190.594,890.258c2.496,11.62,2.087,23.648,0.215,35.333C1190.895,913.82,1190.895,902.028,1190.594,890.258
		z"/>
	<path class="st77" d="M188.261,1037.635c5.293-4.713,10.264-9.769,15.601-14.417c1.829,1.851,3.658,3.701,5.509,5.552
		c-4.024,5.961-7.962,11.986-12.825,17.322c-9.705,8.048-20.593,15.106-28.081,25.477c-7.725,10.522-12.394,23.326-12.459,36.43
		c-0.301,16.505,0.43,33.03,0.022,49.556c-0.516,17.387,3.486,34.407,4.497,51.686c1.054,15.773,5.509,30.986,8.952,46.328
		c8.93,38.883,24.509,76.518,47.856,109.011c5.53,7.596,12.222,14.202,19.173,20.507c-0.387,7.144-0.732,14.503-3.938,21.066
		c-0.559-3.68-0.237-7.854-2.862-10.824c-7.747-10.135-17.58-18.505-24.875-29.028c-10.544-14.933-20.786-30.362-27.608-47.404
		c-7.015-20.076-15.579-39.765-19.366-60.788c-2.281-12.803-7.79-25.004-7.94-38.173c-0.323-13.707-3.723-27.156-3.938-40.863
		c-0.538-25.822-0.559-51.622-0.344-77.443c0.022-14.675,5.767-28.963,14.589-40.518
		C167.733,1051.234,179.159,1045.747,188.261,1037.635z"/>
	<path class="st78" d="M196.546,1046.091c6.283-5.078,12.567-10.113,18.635-15.407c6.025,7.101,11.555,14.568,17.15,21.991
		c12.287,16.009,30.577,25.563,45.855,38.238c7.079,5.745,0.775,15.299-2.001,21.712c-7.574,8.865-15.751,17.365-25.327,24.079
		c-4.497,3.4-9.554,6.369-12.846,11.082c-2.625,10.049,4.411,19.173,10.544,26.381c7.983,8.65,14.675,18.505,23.519,26.359
		c3.637,3.658,10.544,6.219,9.21,12.524c-1.227,16.763-2.926,33.676-7.94,49.814c-4.239,13.815-5.831,28.253-9.425,42.24
		c-5.939,23.132-12.459,46.113-19.56,68.901c-1.248,4.519-4.648,7.854-7.854,11.082c-6.95-6.305-13.642-12.911-19.173-20.507
		c-23.347-32.492-38.926-70.127-47.856-109.011c-3.443-15.342-7.897-30.556-8.952-46.328c-1.011-17.279-5.014-34.3-4.497-51.686
		c0.409-16.526-0.323-33.052-0.022-49.556c0.065-13.104,4.734-25.908,12.459-36.43
		C175.953,1061.197,186.841,1054.139,196.546,1046.091z"/>
	<path class="st79" d="M276.184,1112.625c4.347-5.1,8.779-10.156,13.234-15.149c-1.721,6.95-3.615,13.879-5.702,20.743
		c1.635,0.495,3.271,1.011,4.928,1.528c-9.877,4.304-15.773,13.686-23.734,20.464c-5.423,5.014-11.813,9.188-16.009,15.407
		c5.573,12.287,18.075,19.711,24.294,31.718c1.7,3.981,3.013,8.134,4.39,12.265c-1.377,0.215-4.131,0.689-5.509,0.925
		c-8.844-7.854-15.536-17.709-23.519-26.359c-6.133-7.208-13.169-16.332-10.544-26.381c3.292-4.712,8.349-7.682,12.846-11.082
		C260.433,1129.99,268.61,1121.491,276.184,1112.625z"/>
	<path class="st80" d="M586.754,1118.177c2.561,0.667,5.121,1.356,7.682,2.066c5.207,9.339,10.996,18.333,15.493,28.06
		c11.964,25.972,19.237,53.73,29.544,80.348c2.367,6.455,4.282,13.083,5.552,19.861c4.411,25.327,8.779,50.955,7.144,76.755
		c-1.184,17.86,1.162,35.914-2.195,53.601c-8.263,40.884-14.675,83.662-37.291,119.597c-5.659,10.092-13.578,19.065-17.193,30.19
		c-1.528,5.724-1.7,14.116,4.842,16.762c14.18,6.606,30.19,6.671,45.338,9.403c21.432,3.787,43.251,3.443,64.942,3.701
		c16.483-0.237,33.073,0.904,49.492-1.119c9.102-0.947,17.042-6.714,21.798-14.374c8.241-13.062,10.824-28.748,12.244-43.897
		c1.98-38.862,4.82-77.766,2.754-116.692c4.433,2.948,8.758,6.154,12.287,10.178c3.658,27.629-0.947,55.603-0.947,83.361
		c0.043,19.926-1.506,40.002-6.563,59.325c-7.359,15.385-19.969,30.534-37.269,34.472c-21.497,0.516-43.208,2.862-64.533-1.011
		c-13.578-2.152-27.349-0.775-40.97-1.958c-18.635-2.819-37.893-0.732-56.033-6.735c-9.124-2.776-18.979-7.768-21.948-17.559
		c-1.162-9.253,0.237-19.216,5.595-27.027c9.963-14.74,19.711-29.76,27.07-46.006c3.981-10.027,6.025-20.679,9.941-30.728
		c4.11-10.307,4.562-21.497,7.295-32.126c5.293-19.409,7.639-39.615,7.445-59.713c0.301-26.123,0.452-52.31-2.668-78.283
		c-3.335-21.841-10.006-42.971-17.387-63.736c-4.347-16.892-11.986-32.643-18.011-48.954c-4.282-11.684-11.555-21.905-16.913-33.073
		C584.43,1121.297,585.592,1119.726,586.754,1118.177z"/>
	<path class="st81" d="M555.488,1127.387c3.378,1.205,6.778,2.432,10.178,3.658c6.412,16.182,10.716,33.03,13.406,50.202
		c4.971,16.117,6.283,32.923,9.253,49.448c1.592,18.592,0.968,37.312,1.054,55.968c-0.28,13.277,0.796,26.682-1.442,39.851
		c-4.175,26.854-6.714,54.139-15.106,80.112c-2.883,20.593-5.917,42.197-18.183,59.67c-5.788,7.015-11.189,15.385-20.248,18.441
		c-13.642,6.197-28.942,3.4-43.359,3.163c-11.275-2.001-22.702-2.991-34.02-4.562c-11.534-3.185-23.476-4.368-35.397-4.54
		c1.14-1.485,2.324-2.905,3.507-4.347c-1.528-1.98-3.056-3.959-4.583-5.917c5.745-0.732,11.512-1.442,17.301-1.743
		c19.969,6.326,41.013,8.736,61.864,9.726c10.027-0.108,20.657,1.076,30.125-2.948c9.511-5.401,15.665-15.084,20.335-24.681
		c6.821-14.159,6.843-30.19,10.651-45.166c5.616-22.508,11.189-45.123,13.642-68.255c3.12-29.049,3.594-58.4,1.356-87.535
		c-0.753-16.418-2.109-32.837-5.38-48.954c-0.796-13.685-2.345-27.479-7.165-40.411
		C559.448,1148.517,556.263,1138.167,555.488,1127.387z"/>
	<path class="st82" d="M511.355,1137.005c12.545-0.344,24.552-5.164,37.097-4.949c2.991,2.432,4.605,6.068,6.09,9.554
		c7.467,18.484,9.662,38.496,15.902,57.367c3.271,16.117,4.626,32.535,5.38,48.954c2.238,29.135,1.764,58.486-1.356,87.535
		c-2.453,23.132-8.026,45.747-13.642,68.255c-3.809,14.977-3.83,31.007-10.651,45.166c-4.669,9.597-10.824,19.28-20.335,24.681
		c-9.468,4.024-20.098,2.84-30.125,2.948c-20.851-0.99-41.896-3.4-61.864-9.726c-5.831-1.872-11.663-3.766-17.516-5.53
		c1.7-7.768,3.701-15.472,5.014-23.304c3.077-26.618,6.111-53.214,8.177-79.94c4.002-26.489,4.497-53.3,4.304-80.026
		c-0.194-10.953,1.313-21.819,3.378-32.535c3.916-20.464,2.84-41.379,3.056-62.101c0.387-15.063-5.057-29.351-6.671-44.177
		C462.208,1139.071,486.781,1138.038,511.355,1137.005z"/>
	<path class="st4" d="M914.99,1140.513c18.355-3.551,37.162-8.005,55.925-4.863c17.15,1.678,33.052,8.672,49.513,13.212
		c14.654,4.045,28.598,12.567,37.42,25.09c8.263,11.598-0.732,27.199-12.05,32.772c-16.16,7.983-35.225,10.307-52.805,6.219
		c-14.697-3.249-29.609-6.24-43.359-12.588c-13.449-6.176-27.565-11.555-39.098-21.023c-9.619-8.069-19.883-15.364-28.877-24.143
		C891.019,1147.054,903.564,1144.494,914.99,1140.513z"/>
	<path class="st83" d="M707.169,1177.502c-5.896-7.338-4.992-16.569-1.872-24.875c0.753,3.12,1.635,6.24,2.518,9.36
		c4.476,0.99,8.973,2.023,13.384,3.335C716.465,1169.325,711.817,1173.414,707.169,1177.502z"/>
	<path class="st84" d="M775.123,1213.201c1.248,3.422,2.518,6.864,3.852,10.286c2.711-0.56,5.444-1.119,8.198-1.678
		c-4.304,9.145-3.873,19.624,0.043,28.813c8.284,20.7,9.726,43.122,15.278,64.554c5.057,20.248,2.733,41.422,7.531,61.692
		c0.818,3.443,2.109,6.757,3.68,9.941c-1.141,1.463-3.4,4.368-4.519,5.81c-3.529-4.024-7.854-7.23-12.287-10.178
		c-4.153-33.504-8.241-67.136-15.515-100.145c-3.981-18.742-10.415-36.839-15.385-55.301c2.496,1.162,5.014,2.345,7.531,3.55
		C774.09,1224.756,774.757,1218.989,775.123,1213.201z"/>
	<path class="st85" d="M1044.486,1410.586c5.293,0.495,10.243,2.668,15.084,4.777c32.385,14.374,57.539,42.52,71.913,74.517
		c4.11,6.628-3.636,10.587-9.403,8.995c-29.63-5.53-60.121-16.461-81.015-39.141c-8.779-8.973-15.859-20.421-17.731-32.966
		C1025.12,1417.278,1034.76,1409.746,1044.486,1410.586z"/>
</g>
</svg>
